<svg width="16" height="5" viewBox="0 0 16 5" fill="none" xmlns="http://www.w3.org/2000/svg">
<path fill-rule="evenodd" clip-rule="evenodd" d="M3.33317 2.5C3.33317 2.1318 3.03469 1.83333 2.6665 1.83333C2.29832 1.83333 1.99984 2.1318 1.99984 2.5C1.99984 2.8682 2.29832 3.16667 2.6665 3.16667C3.03469 3.16667 3.33317 2.8682 3.33317 2.5ZM8.6665 2.5C8.6665 2.1318 8.36804 1.83333 7.99984 1.83333C7.63164 1.83333 7.33317 2.1318 7.33317 2.5C7.33317 2.8682 7.63164 3.16667 7.99984 3.16667C8.36804 3.16667 8.6665 2.8682 8.6665 2.5ZM13.9998 2.5C13.9998 2.1318 13.7014 1.83333 13.3332 1.83333C12.965 1.83333 12.6665 2.1318 12.6665 2.5C12.6665 2.8682 12.965 3.16667 13.3332 3.16667C13.7014 3.16667 13.9998 2.8682 13.9998 2.5ZM2.6665 0.5C3.77107 0.5 4.6665 1.3954 4.6665 2.5C4.6665 3.6046 3.77107 4.5 2.6665 4.5C1.56194 4.5 0.666504 3.6046 0.666504 2.5C0.666504 1.3954 1.56194 0.5 2.6665 0.5ZM7.99984 0.5C9.10444 0.5 9.99984 1.3954 9.99984 2.5C9.99984 3.6046 9.10444 4.5 7.99984 4.5C6.89524 4.5 5.99984 3.6046 5.99984 2.5C5.99984 1.3954 6.89524 0.5 7.99984 0.5ZM15.3332 2.5C15.3332 1.3954 14.4378 0.5 13.3332 0.5C12.2286 0.5 11.3332 1.3954 11.3332 2.5C11.3332 3.6046 12.2286 4.5 13.3332 4.5C14.4378 4.5 15.3332 3.6046 15.3332 2.5Z" fill="#767A8C"/>
</svg>
