<svg width="19" height="18" viewBox="0 0 19 18" fill="none" xmlns="http://www.w3.org/2000/svg">
<path opacity="0.4" d="M9.69531 16.5C13.8374 16.5 17.1953 13.1421 17.1953 9C17.1953 4.85786 13.8374 1.5 9.69531 1.5C5.55318 1.5 2.19531 4.85786 2.19531 9C2.19531 13.1421 5.55318 16.5 9.69531 16.5Z" fill="#171717" fill-opacity="0.7"/>
<path d="M8.75008 12.21C8.60758 12.21 8.46508 12.1575 8.35258 12.045C8.13508 11.8275 8.13508 11.4675 8.35258 11.25L10.6026 9L8.35258 6.75C8.13508 6.5325 8.13508 6.1725 8.35258 5.955C8.57008 5.7375 8.93008 5.7375 9.14758 5.955L11.7951 8.6025C12.0126 8.82 12.0126 9.18 11.7951 9.3975L9.14758 12.045C9.03508 12.1575 8.89258 12.21 8.75008 12.21Z" fill="#171717"/>
</svg>
