<svg width="19" height="18" viewBox="0 0 19 18" fill="none" xmlns="http://www.w3.org/2000/svg">
<path opacity="0.4" d="M9.69531 16.5C13.8374 16.5 17.1953 13.1421 17.1953 9C17.1953 4.85786 13.8374 1.5 9.69531 1.5C5.55318 1.5 2.19531 4.85786 2.19531 9C2.19531 13.1421 5.55318 16.5 9.69531 16.5Z" fill="#171717" fill-opacity="0.7"/>
<path d="M10.6398 12.21C10.4973 12.21 10.3548 12.1575 10.2423 12.045L7.59477 9.3975C7.37727 9.18 7.37727 8.82 7.59477 8.6025L10.2423 5.955C10.4598 5.7375 10.8198 5.7375 11.0373 5.955C11.2548 6.1725 11.2548 6.5325 11.0373 6.75L8.78727 9L11.0373 11.25C11.2548 11.4675 11.2548 11.8275 11.0373 12.045C10.9323 12.1575 10.7898 12.21 10.6398 12.21Z" fill="#171717"/>
</svg>
