<svg width="21" height="21" viewBox="0 0 21 21" fill="none" xmlns="http://www.w3.org/2000/svg">
<path opacity="0.4" d="M10.4359 18.7244C14.9546 18.7244 18.6178 15.0612 18.6178 10.5424C18.6178 6.02366 14.9546 2.36047 10.4359 2.36047C5.9171 2.36047 2.25391 6.02366 2.25391 10.5424C2.25391 15.0612 5.9171 18.7244 10.4359 18.7244Z" fill="#171717" fill-opacity="0.5"/>
<path d="M13.3236 12.187C13.1682 12.187 13.0127 12.1297 12.89 12.007L10.4354 9.55238L7.98079 12.007C7.74352 12.2442 7.35078 12.2442 7.1135 12.007C6.87623 11.7697 6.87623 11.377 7.1135 11.1397L10.0017 8.25144C10.239 8.01417 10.6317 8.01417 10.869 8.25144L13.7573 11.1397C13.9945 11.377 13.9945 11.7697 13.7573 12.007C13.6345 12.1297 13.4791 12.187 13.3236 12.187Z" fill="#171717"/>
</svg>
