<svg width="18" height="18" viewBox="0 0 18 18" fill="none" xmlns="http://www.w3.org/2000/svg">
<mask id="path-1-inside-1_7189_9868" fill="white">
<path d="M11.2509 15.5024C11.1084 15.5024 10.9659 15.4499 10.8534 15.3374L5.96344 10.4474C5.16844 9.65239 5.16844 8.34739 5.96344 7.55239L10.8534 2.66239C11.0709 2.44489 11.4309 2.44489 11.6484 2.66239C11.8659 2.87989 11.8659 3.23989 11.6484 3.45739L6.75844 8.34739C6.39844 8.70739 6.39844 9.29239 6.75844 9.65239L11.6484 14.5424C11.8659 14.7599 11.8659 15.1199 11.6484 15.3374C11.5359 15.4424 11.3934 15.5024 11.2509 15.5024Z"/>
</mask>
<path d="M11.2509 15.5024C11.1084 15.5024 10.9659 15.4499 10.8534 15.3374L5.96344 10.4474C5.16844 9.65239 5.16844 8.34739 5.96344 7.55239L10.8534 2.66239C11.0709 2.44489 11.4309 2.44489 11.6484 2.66239C11.8659 2.87989 11.8659 3.23989 11.6484 3.45739L6.75844 8.34739C6.39844 8.70739 6.39844 9.29239 6.75844 9.65239L11.6484 14.5424C11.8659 14.7599 11.8659 15.1199 11.6484 15.3374C11.5359 15.4424 11.3934 15.5024 11.2509 15.5024Z" fill="#171717"/>
<path d="M10.8534 15.3374L11.9141 14.2767H11.9141L10.8534 15.3374ZM5.96344 10.4474L4.90278 11.5081H4.90278L5.96344 10.4474ZM5.96344 7.55239L4.90278 6.49173H4.90278L5.96344 7.55239ZM10.8534 2.66239L11.9141 3.72305L11.9141 3.72305L10.8534 2.66239ZM11.6484 3.45739L10.5878 2.39673V2.39673L11.6484 3.45739ZM6.75844 8.34739L7.8191 9.40805L6.75844 8.34739ZM6.75844 9.65239L5.69778 10.7131H5.69778L6.75844 9.65239ZM11.6484 14.5424L12.7091 13.4817H12.7091L11.6484 14.5424ZM11.6484 15.3374L12.6719 16.434L12.6908 16.4163L12.7091 16.3981L11.6484 15.3374ZM11.2509 15.5024V14.0024C11.4848 14.0024 11.7305 14.0931 11.9141 14.2767L10.8534 15.3374L9.79278 16.3981C10.2014 16.8067 10.7321 17.0024 11.2509 17.0024V15.5024ZM10.8534 15.3374L11.9141 14.2767L7.0241 9.38673L5.96344 10.4474L4.90278 11.5081L9.79278 16.3981L10.8534 15.3374ZM5.96344 10.4474L7.0241 9.38673C6.81488 9.17752 6.81488 8.82227 7.0241 8.61305L5.96344 7.55239L4.90278 6.49173C3.52199 7.87252 3.52199 10.1273 4.90278 11.5081L5.96344 10.4474ZM5.96344 7.55239L7.0241 8.61305L11.9141 3.72305L10.8534 2.66239L9.79278 1.60173L4.90278 6.49173L5.96344 7.55239ZM10.8534 2.66239L11.9141 3.72305C11.5458 4.09134 10.9561 4.09134 10.5878 3.72305L11.6484 2.66239L12.7091 1.60173C11.9058 0.798446 10.5961 0.798446 9.79278 1.60173L10.8534 2.66239ZM11.6484 2.66239L10.5878 3.72305C10.2195 3.35477 10.2195 2.76502 10.5878 2.39673L11.6484 3.45739L12.7091 4.51805C13.5124 3.71477 13.5124 2.40502 12.7091 1.60173L11.6484 2.66239ZM11.6484 3.45739L10.5878 2.39673L5.69778 7.28673L6.75844 8.34739L7.8191 9.40805L12.7091 4.51805L11.6484 3.45739ZM6.75844 8.34739L5.69778 7.28673C4.75199 8.23252 4.75199 9.76727 5.69778 10.7131L6.75844 9.65239L7.8191 8.59173C8.04488 8.81752 8.04488 9.18227 7.8191 9.40805L6.75844 8.34739ZM6.75844 9.65239L5.69778 10.7131L10.5878 15.6031L11.6484 14.5424L12.7091 13.4817L7.8191 8.59173L6.75844 9.65239ZM11.6484 14.5424L10.5878 15.6031C10.2195 15.2348 10.2195 14.645 10.5878 14.2767L11.6484 15.3374L12.7091 16.3981C13.5124 15.5948 13.5124 14.285 12.7091 13.4817L11.6484 14.5424ZM11.6484 15.3374L10.625 14.2408C10.7591 14.1156 10.973 14.0024 11.2509 14.0024V15.5024V17.0024C11.8139 17.0024 12.3128 16.7692 12.6719 16.434L11.6484 15.3374Z" fill="#9EC2F9" mask="url(#path-1-inside-1_7189_9868)"/>
</svg>
