<svg width="18" height="18" viewBox="0 0 18 18" fill="none" xmlns="http://www.w3.org/2000/svg">
<path opacity="0.4" d="M9 16.5C13.1421 16.5 16.5 13.1421 16.5 9C16.5 4.85786 13.1421 1.5 9 1.5C4.85786 1.5 1.5 4.85786 1.5 9C1.5 13.1421 4.85786 16.5 9 16.5Z" fill="#2C7BF3"/>
<path d="M11.6251 8.43758H7.73258L9.02258 7.14758C9.24008 6.93008 9.24008 6.57008 9.02258 6.35258C8.80508 6.13508 8.44508 6.13508 8.22758 6.35258L5.97758 8.60258C5.76008 8.82008 5.76008 9.18008 5.97758 9.39758L8.22758 11.6476C8.34008 11.7601 8.48258 11.8126 8.62508 11.8126C8.76758 11.8126 8.91008 11.7601 9.02258 11.6476C9.24008 11.4301 9.24008 11.0701 9.02258 10.8526L7.73258 9.56258H11.6251C11.9326 9.56258 12.1876 9.30758 12.1876 9.00008C12.1876 8.69258 11.9326 8.43758 11.6251 8.43758Z" fill="#2C7BF3"/>
</svg>
