<svg width="21" height="21" viewBox="0 0 21 21" fill="none" xmlns="http://www.w3.org/2000/svg">
<path opacity="0.4" d="M10.4359 18.8946C14.9546 18.8946 18.6178 15.2314 18.6178 10.7126C18.6178 6.19383 14.9546 2.53064 10.4359 2.53064C5.9171 2.53064 2.25391 6.19383 2.25391 10.7126C2.25391 15.2314 5.9171 18.8946 10.4359 18.8946Z" fill="#171717" fill-opacity="0.5"/>
<path d="M10.4354 13.1754C10.2799 13.1754 10.1245 13.1181 10.0017 12.9954L7.1135 10.1071C6.87623 9.86986 6.87623 9.47712 7.1135 9.23985C7.35078 9.00257 7.74352 9.00257 7.98079 9.23985L10.4354 11.6944L12.89 9.23985C13.1272 9.00257 13.52 9.00257 13.7573 9.23985C13.9945 9.47712 13.9945 9.86986 13.7573 10.1071L10.869 12.9954C10.7463 13.1181 10.5908 13.1754 10.4354 13.1754Z" fill="#171717"/>
</svg>
