<svg width="16" height="16" viewBox="0 0 16 16" fill="none" xmlns="http://www.w3.org/2000/svg">
<mask id="path-1-inside-1_6939_10473" fill="white">
<path d="M5.33398 3.83325C5.06065 3.83325 4.83398 3.60659 4.83398 3.33325V1.33325C4.83398 1.05992 5.06065 0.833252 5.33398 0.833252C5.60732 0.833252 5.83398 1.05992 5.83398 1.33325V3.33325C5.83398 3.60659 5.60732 3.83325 5.33398 3.83325Z"/>
</mask>
<path d="M5.33398 3.83325C5.06065 3.83325 4.83398 3.60659 4.83398 3.33325V1.33325C4.83398 1.05992 5.06065 0.833252 5.33398 0.833252C5.60732 0.833252 5.83398 1.05992 5.83398 1.33325V3.33325C5.83398 3.60659 5.60732 3.83325 5.33398 3.83325Z" fill="#171717"/>
<path d="M5.33398 3.83325V2.33325C5.88908 2.33325 6.33398 2.77816 6.33398 3.33325H4.83398H3.33398C3.33398 4.43501 4.23222 5.33325 5.33398 5.33325V3.83325ZM4.83398 3.33325H6.33398V1.33325H4.83398H3.33398V3.33325H4.83398ZM4.83398 1.33325H6.33398C6.33398 1.88835 5.88908 2.33325 5.33398 2.33325V0.833252V-0.666748C4.23222 -0.666748 3.33398 0.231492 3.33398 1.33325H4.83398ZM5.33398 0.833252V2.33325C4.77889 2.33325 4.33398 1.88835 4.33398 1.33325H5.83398H7.33398C7.33398 0.231492 6.43574 -0.666748 5.33398 -0.666748V0.833252ZM5.83398 1.33325H4.33398V3.33325H5.83398H7.33398V1.33325H5.83398ZM5.83398 3.33325H4.33398C4.33398 2.77816 4.77889 2.33325 5.33398 2.33325V3.83325V5.33325C6.43574 5.33325 7.33398 4.43501 7.33398 3.33325H5.83398Z" fill="#767A8C" mask="url(#path-1-inside-1_6939_10473)"/>
<mask id="path-3-inside-2_6939_10473" fill="white">
<path d="M10.666 3.83325C10.3927 3.83325 10.166 3.60659 10.166 3.33325V1.33325C10.166 1.05992 10.3927 0.833252 10.666 0.833252C10.9393 0.833252 11.166 1.05992 11.166 1.33325V3.33325C11.166 3.60659 10.9393 3.83325 10.666 3.83325Z"/>
</mask>
<path d="M10.666 3.83325C10.3927 3.83325 10.166 3.60659 10.166 3.33325V1.33325C10.166 1.05992 10.3927 0.833252 10.666 0.833252C10.9393 0.833252 11.166 1.05992 11.166 1.33325V3.33325C11.166 3.60659 10.9393 3.83325 10.666 3.83325Z" fill="#171717"/>
<path d="M10.666 3.83325V2.33325C11.2211 2.33325 11.666 2.77816 11.666 3.33325H10.166H8.66602C8.66602 4.43501 9.56426 5.33325 10.666 5.33325V3.83325ZM10.166 3.33325H11.666V1.33325H10.166H8.66602V3.33325H10.166ZM10.166 1.33325H11.666C11.666 1.88835 11.2211 2.33325 10.666 2.33325V0.833252V-0.666748C9.56426 -0.666748 8.66602 0.231492 8.66602 1.33325H10.166ZM10.666 0.833252V2.33325C10.1109 2.33325 9.66602 1.88835 9.66602 1.33325H11.166H12.666C12.666 0.231492 11.7678 -0.666748 10.666 -0.666748V0.833252ZM11.166 1.33325H9.66602V3.33325H11.166H12.666V1.33325H11.166ZM11.166 3.33325H9.66602C9.66602 2.77816 10.1109 2.33325 10.666 2.33325V3.83325V5.33325C11.7678 5.33325 12.666 4.43501 12.666 3.33325H11.166Z" fill="#767A8C" mask="url(#path-3-inside-2_6939_10473)"/>
<mask id="path-5-inside-3_6939_10473" fill="white">
<path d="M10 15.1666H6C2.25333 15.1666 1.5 13.3999 1.5 10.5466V6.43325C1.5 3.27325 2.56667 1.98659 5.30667 1.83325H10.6667C10.6733 1.83325 10.6867 1.83325 10.6933 1.83325C13.4333 1.98659 14.5 3.27325 14.5 6.43325V10.5466C14.5 13.3999 13.7467 15.1666 10 15.1666ZM5.33333 2.83325C3.46667 2.93992 2.5 3.52658 2.5 6.43325V10.5466C2.5 13.0999 2.98667 14.1666 6 14.1666H10C13.0133 14.1666 13.5 13.0999 13.5 10.5466V6.43325C13.5 3.53325 12.54 2.93992 10.6533 2.83325H5.33333Z"/>
</mask>
<path d="M10 15.1666H6C2.25333 15.1666 1.5 13.3999 1.5 10.5466V6.43325C1.5 3.27325 2.56667 1.98659 5.30667 1.83325H10.6667C10.6733 1.83325 10.6867 1.83325 10.6933 1.83325C13.4333 1.98659 14.5 3.27325 14.5 6.43325V10.5466C14.5 13.3999 13.7467 15.1666 10 15.1666ZM5.33333 2.83325C3.46667 2.93992 2.5 3.52658 2.5 6.43325V10.5466C2.5 13.0999 2.98667 14.1666 6 14.1666H10C13.0133 14.1666 13.5 13.0999 13.5 10.5466V6.43325C13.5 3.53325 12.54 2.93992 10.6533 2.83325H5.33333Z" fill="#171717"/>
<path d="M5.30667 1.83325V0.333252H5.26473L5.22286 0.335595L5.30667 1.83325ZM10.6933 1.83325L10.7771 0.335595L10.7353 0.333252H10.6933V1.83325ZM5.33333 2.83325V1.33325H5.29051L5.24776 1.33569L5.33333 2.83325ZM10.6533 2.83325L10.738 1.33564L10.6957 1.33325H10.6533V2.83325ZM10 15.1666V13.6666H6V15.1666V16.6666H10V15.1666ZM6 15.1666V13.6666C4.32312 13.6666 3.74656 13.2693 3.50345 12.9737C3.20222 12.6075 3 11.923 3 10.5466H1.5H0C0 12.0235 0.174447 13.649 1.18655 14.8795C2.25678 16.1806 3.93021 16.6666 6 16.6666V15.1666ZM1.5 10.5466H3V6.43325H1.5H0V10.5466H1.5ZM1.5 6.43325H3C3 4.96301 3.26054 4.28932 3.53127 3.96229C3.76013 3.68584 4.21706 3.39657 5.39048 3.33091L5.30667 1.83325L5.22286 0.335595C3.65627 0.423263 2.20987 0.853997 1.2204 2.04921C0.272797 3.19385 0 4.74349 0 6.43325H1.5ZM5.30667 1.83325V3.33325H10.6667V1.83325V0.333252H5.30667V1.83325ZM10.6667 1.83325V3.33325C10.6667 3.33325 10.6667 3.33325 10.6667 3.33325C10.6667 3.33325 10.6667 3.33325 10.6667 3.33325C10.6668 3.33325 10.6668 3.33325 10.6668 3.33325C10.6668 3.33325 10.6668 3.33325 10.6668 3.33325C10.6668 3.33325 10.6669 3.33325 10.6669 3.33325C10.6669 3.33325 10.6669 3.33325 10.6669 3.33325C10.6669 3.33325 10.6669 3.33325 10.6669 3.33325C10.667 3.33325 10.667 3.33325 10.667 3.33325C10.667 3.33325 10.667 3.33325 10.667 3.33325C10.667 3.33325 10.6671 3.33325 10.6671 3.33325C10.6671 3.33325 10.6671 3.33325 10.6671 3.33325C10.6671 3.33325 10.6671 3.33325 10.6671 3.33325C10.6672 3.33325 10.6672 3.33325 10.6672 3.33325C10.6672 3.33325 10.6672 3.33325 10.6672 3.33325C10.6672 3.33325 10.6673 3.33325 10.6673 3.33325C10.6673 3.33325 10.6673 3.33325 10.6673 3.33325C10.6673 3.33325 10.6673 3.33325 10.6674 3.33325C10.6674 3.33325 10.6674 3.33325 10.6674 3.33325C10.6674 3.33325 10.6674 3.33325 10.6674 3.33325C10.6674 3.33325 10.6675 3.33325 10.6675 3.33325C10.6675 3.33325 10.6675 3.33325 10.6675 3.33325C10.6675 3.33325 10.6675 3.33325 10.6676 3.33325C10.6676 3.33325 10.6676 3.33325 10.6676 3.33325C10.6676 3.33325 10.6676 3.33325 10.6676 3.33325C10.6677 3.33325 10.6677 3.33325 10.6677 3.33325C10.6677 3.33325 10.6677 3.33325 10.6677 3.33325C10.6677 3.33325 10.6678 3.33325 10.6678 3.33325C10.6678 3.33325 10.6678 3.33325 10.6678 3.33325C10.6678 3.33325 10.6678 3.33325 10.6679 3.33325C10.6679 3.33325 10.6679 3.33325 10.6679 3.33325C10.6679 3.33325 10.6679 3.33325 10.6679 3.33325C10.668 3.33325 10.668 3.33325 10.668 3.33325C10.668 3.33325 10.668 3.33325 10.668 3.33325C10.668 3.33325 10.6681 3.33325 10.6681 3.33325C10.6681 3.33325 10.6681 3.33325 10.6681 3.33325C10.6681 3.33325 10.6682 3.33325 10.6682 3.33325C10.6682 3.33325 10.6682 3.33325 10.6682 3.33325C10.6682 3.33325 10.6682 3.33325 10.6683 3.33325C10.6683 3.33325 10.6683 3.33325 10.6683 3.33325C10.6683 3.33325 10.6683 3.33325 10.6683 3.33325C10.6684 3.33325 10.6684 3.33325 10.6684 3.33325C10.6684 3.33325 10.6684 3.33325 10.6684 3.33325C10.6684 3.33325 10.6685 3.33325 10.6685 3.33325C10.6685 3.33325 10.6685 3.33325 10.6685 3.33325C10.6685 3.33325 10.6686 3.33325 10.6686 3.33325C10.6686 3.33325 10.6686 3.33325 10.6686 3.33325C10.6686 3.33325 10.6686 3.33325 10.6687 3.33325C10.6687 3.33325 10.6687 3.33325 10.6687 3.33325C10.6687 3.33325 10.6687 3.33325 10.6688 3.33325C10.6688 3.33325 10.6688 3.33325 10.6688 3.33325C10.6688 3.33325 10.6688 3.33325 10.6688 3.33325C10.6689 3.33325 10.6689 3.33325 10.6689 3.33325C10.6689 3.33325 10.6689 3.33325 10.6689 3.33325C10.669 3.33325 10.669 3.33325 10.669 3.33325C10.669 3.33325 10.669 3.33325 10.669 3.33325C10.669 3.33325 10.6691 3.33325 10.6691 3.33325C10.6691 3.33325 10.6691 3.33325 10.6691 3.33325C10.6691 3.33325 10.6692 3.33325 10.6692 3.33325C10.6692 3.33325 10.6692 3.33325 10.6692 3.33325C10.6692 3.33325 10.6692 3.33325 10.6693 3.33325C10.6693 3.33325 10.6693 3.33325 10.6693 3.33325C10.6693 3.33325 10.6693 3.33325 10.6694 3.33325C10.6694 3.33325 10.6694 3.33325 10.6694 3.33325C10.6694 3.33325 10.6694 3.33325 10.6695 3.33325C10.6695 3.33325 10.6695 3.33325 10.6695 3.33325C10.6695 3.33325 10.6695 3.33325 10.6695 3.33325C10.6696 3.33325 10.6696 3.33325 10.6696 3.33325C10.6696 3.33325 10.6696 3.33325 10.6696 3.33325C10.6697 3.33325 10.6697 3.33325 10.6697 3.33325C10.6697 3.33325 10.6697 3.33325 10.6697 3.33325C10.6698 3.33325 10.6698 3.33325 10.6698 3.33325C10.6698 3.33325 10.6698 3.33325 10.6698 3.33325C10.6699 3.33325 10.6699 3.33325 10.6699 3.33325C10.6699 3.33325 10.6699 3.33325 10.6699 3.33325C10.67 3.33325 10.67 3.33325 10.67 3.33325C10.67 3.33325 10.67 3.33325 10.67 3.33325C10.67 3.33325 10.6701 3.33325 10.6701 3.33325C10.6701 3.33325 10.6701 3.33325 10.6701 3.33325C10.6701 3.33325 10.6702 3.33325 10.6702 3.33325C10.6702 3.33325 10.6702 3.33325 10.6702 3.33325C10.6702 3.33325 10.6703 3.33325 10.6703 3.33325C10.6703 3.33325 10.6703 3.33325 10.6703 3.33325C10.6703 3.33325 10.6704 3.33325 10.6704 3.33325C10.6704 3.33325 10.6704 3.33325 10.6704 3.33325C10.6704 3.33325 10.6705 3.33325 10.6705 3.33325C10.6705 3.33325 10.6705 3.33325 10.6705 3.33325C10.6705 3.33325 10.6706 3.33325 10.6706 3.33325C10.6706 3.33325 10.6706 3.33325 10.6706 3.33325C10.6706 3.33325 10.6707 3.33325 10.6707 3.33325C10.6707 3.33325 10.6707 3.33325 10.6707 3.33325C10.6707 3.33325 10.6708 3.33325 10.6708 3.33325C10.6708 3.33325 10.6708 3.33325 10.6708 3.33325C10.6708 3.33325 10.6709 3.33325 10.6709 3.33325C10.6709 3.33325 10.6709 3.33325 10.6709 3.33325C10.6709 3.33325 10.671 3.33325 10.671 3.33325C10.671 3.33325 10.671 3.33325 10.671 3.33325C10.671 3.33325 10.6711 3.33325 10.6711 3.33325C10.6711 3.33325 10.6711 3.33325 10.6711 3.33325C10.6712 3.33325 10.6712 3.33325 10.6712 3.33325C10.6712 3.33325 10.6712 3.33325 10.6712 3.33325C10.6713 3.33325 10.6713 3.33325 10.6713 3.33325C10.6713 3.33325 10.6713 3.33325 10.6713 3.33325C10.6714 3.33325 10.6714 3.33325 10.6714 3.33325C10.6714 3.33325 10.6714 3.33325 10.6714 3.33325C10.6715 3.33325 10.6715 3.33325 10.6715 3.33325C10.6715 3.33325 10.6715 3.33325 10.6715 3.33325C10.6716 3.33325 10.6716 3.33325 10.6716 3.33325C10.6716 3.33325 10.6716 3.33325 10.6717 3.33325C10.6717 3.33325 10.6717 3.33325 10.6717 3.33325C10.6717 3.33325 10.6717 3.33325 10.6718 3.33325C10.6718 3.33325 10.6718 3.33325 10.6718 3.33325C10.6718 3.33325 10.6718 3.33325 10.6719 3.33325C10.6719 3.33325 10.6719 3.33325 10.6719 3.33325C10.6719 3.33325 10.6719 3.33325 10.672 3.33325C10.672 3.33325 10.672 3.33325 10.672 3.33325C10.672 3.33325 10.6721 3.33325 10.6721 3.33325C10.6721 3.33325 10.6721 3.33325 10.6721 3.33325C10.6721 3.33325 10.6722 3.33325 10.6722 3.33325C10.6722 3.33325 10.6722 3.33325 10.6722 3.33325C10.6722 3.33325 10.6723 3.33325 10.6723 3.33325C10.6723 3.33325 10.6723 3.33325 10.6723 3.33325C10.6724 3.33325 10.6724 3.33325 10.6724 3.33325C10.6724 3.33325 10.6724 3.33325 10.6724 3.33325C10.6725 3.33325 10.6725 3.33325 10.6725 3.33325C10.6725 3.33325 10.6725 3.33325 10.6725 3.33325C10.6726 3.33325 10.6726 3.33325 10.6726 3.33325C10.6726 3.33325 10.6726 3.33325 10.6727 3.33325C10.6727 3.33325 10.6727 3.33325 10.6727 3.33325C10.6727 3.33325 10.6727 3.33325 10.6728 3.33325C10.6728 3.33325 10.6728 3.33325 10.6728 3.33325C10.6728 3.33325 10.6729 3.33325 10.6729 3.33325C10.6729 3.33325 10.6729 3.33325 10.6729 3.33325C10.6729 3.33325 10.673 3.33325 10.673 3.33325C10.673 3.33325 10.673 3.33325 10.673 3.33325C10.673 3.33325 10.6731 3.33325 10.6731 3.33325C10.6731 3.33325 10.6731 3.33325 10.6731 3.33325C10.6732 3.33325 10.6732 3.33325 10.6732 3.33325C10.6732 3.33325 10.6732 3.33325 10.6732 3.33325C10.6733 3.33325 10.6733 3.33325 10.6733 3.33325C10.6733 3.33325 10.6733 3.33325 10.6734 3.33325C10.6734 3.33325 10.6734 3.33325 10.6734 3.33325C10.6734 3.33325 10.6734 3.33325 10.6735 3.33325C10.6735 3.33325 10.6735 3.33325 10.6735 3.33325C10.6735 3.33325 10.6736 3.33325 10.6736 3.33325C10.6736 3.33325 10.6736 3.33325 10.6736 3.33325C10.6737 3.33325 10.6737 3.33325 10.6737 3.33325C10.6737 3.33325 10.6737 3.33325 10.6737 3.33325C10.6738 3.33325 10.6738 3.33325 10.6738 3.33325C10.6738 3.33325 10.6738 3.33325 10.6739 3.33325C10.6739 3.33325 10.6739 3.33325 10.6739 3.33325C10.6739 3.33325 10.6739 3.33325 10.674 3.33325C10.674 3.33325 10.674 3.33325 10.674 3.33325C10.674 3.33325 10.6741 3.33325 10.6741 3.33325C10.6741 3.33325 10.6741 3.33325 10.6741 3.33325C10.6741 3.33325 10.6742 3.33325 10.6742 3.33325C10.6742 3.33325 10.6742 3.33325 10.6742 3.33325C10.6743 3.33325 10.6743 3.33325 10.6743 3.33325C10.6743 3.33325 10.6743 3.33325 10.6744 3.33325C10.6744 3.33325 10.6744 3.33325 10.6744 3.33325C10.6744 3.33325 10.6744 3.33325 10.6745 3.33325C10.6745 3.33325 10.6745 3.33325 10.6745 3.33325C10.6745 3.33325 10.6746 3.33325 10.6746 3.33325C10.6746 3.33325 10.6746 3.33325 10.6746 3.33325C10.6747 3.33325 10.6747 3.33325 10.6747 3.33325C10.6747 3.33325 10.6747 3.33325 10.6747 3.33325C10.6748 3.33325 10.6748 3.33325 10.6748 3.33325C10.6748 3.33325 10.6748 3.33325 10.6749 3.33325C10.6749 3.33325 10.6749 3.33325 10.6749 3.33325C10.6749 3.33325 10.6749 3.33325 10.675 3.33325C10.675 3.33325 10.675 3.33325 10.675 3.33325C10.675 3.33325 10.6751 3.33325 10.6751 3.33325C10.6751 3.33325 10.6751 3.33325 10.6751 3.33325C10.6752 3.33325 10.6752 3.33325 10.6752 3.33325C10.6752 3.33325 10.6752 3.33325 10.6753 3.33325C10.6753 3.33325 10.6753 3.33325 10.6753 3.33325C10.6753 3.33325 10.6753 3.33325 10.6754 3.33325C10.6754 3.33325 10.6754 3.33325 10.6754 3.33325C10.6754 3.33325 10.6755 3.33325 10.6755 3.33325C10.6755 3.33325 10.6755 3.33325 10.6755 3.33325C10.6756 3.33325 10.6756 3.33325 10.6756 3.33325C10.6756 3.33325 10.6756 3.33325 10.6756 3.33325C10.6757 3.33325 10.6757 3.33325 10.6757 3.33325C10.6757 3.33325 10.6757 3.33325 10.6758 3.33325C10.6758 3.33325 10.6758 3.33325 10.6758 3.33325C10.6758 3.33325 10.6759 3.33325 10.6759 3.33325C10.6759 3.33325 10.6759 3.33325 10.6759 3.33325C10.676 3.33325 10.676 3.33325 10.676 3.33325C10.676 3.33325 10.676 3.33325 10.676 3.33325C10.6761 3.33325 10.6761 3.33325 10.6761 3.33325C10.6761 3.33325 10.6761 3.33325 10.6762 3.33325C10.6762 3.33325 10.6762 3.33325 10.6762 3.33325C10.6762 3.33325 10.6763 3.33325 10.6763 3.33325C10.6763 3.33325 10.6763 3.33325 10.6763 3.33325C10.6764 3.33325 10.6764 3.33325 10.6764 3.33325C10.6764 3.33325 10.6764 3.33325 10.6764 3.33325C10.6765 3.33325 10.6765 3.33325 10.6765 3.33325C10.6765 3.33325 10.6765 3.33325 10.6766 3.33325C10.6766 3.33325 10.6766 3.33325 10.6766 3.33325C10.6766 3.33325 10.6767 3.33325 10.6767 3.33325C10.6767 3.33325 10.6767 3.33325 10.6767 3.33325C10.6768 3.33325 10.6768 3.33325 10.6768 3.33325C10.6768 3.33325 10.6768 3.33325 10.6769 3.33325C10.6769 3.33325 10.6769 3.33325 10.6769 3.33325C10.6769 3.33325 10.6769 3.33325 10.677 3.33325C10.677 3.33325 10.677 3.33325 10.677 3.33325C10.677 3.33325 10.6771 3.33325 10.6771 3.33325C10.6771 3.33325 10.6771 3.33325 10.6771 3.33325C10.6772 3.33325 10.6772 3.33325 10.6772 3.33325C10.6772 3.33325 10.6772 3.33325 10.6773 3.33325C10.6773 3.33325 10.6773 3.33325 10.6773 3.33325C10.6773 3.33325 10.6774 3.33325 10.6774 3.33325C10.6774 3.33325 10.6774 3.33325 10.6774 3.33325C10.6775 3.33325 10.6775 3.33325 10.6775 3.33325C10.6775 3.33325 10.6775 3.33325 10.6775 3.33325C10.6776 3.33325 10.6776 3.33325 10.6776 3.33325C10.6776 3.33325 10.6776 3.33325 10.6777 3.33325C10.6777 3.33325 10.6777 3.33325 10.6777 3.33325C10.6777 3.33325 10.6778 3.33325 10.6778 3.33325C10.6778 3.33325 10.6778 3.33325 10.6778 3.33325C10.6779 3.33325 10.6779 3.33325 10.6779 3.33325C10.6779 3.33325 10.6779 3.33325 10.678 3.33325C10.678 3.33325 10.678 3.33325 10.678 3.33325C10.678 3.33325 10.6781 3.33325 10.6781 3.33325C10.6781 3.33325 10.6781 3.33325 10.6781 3.33325C10.6781 3.33325 10.6782 3.33325 10.6782 3.33325C10.6782 3.33325 10.6782 3.33325 10.6782 3.33325C10.6783 3.33325 10.6783 3.33325 10.6783 3.33325C10.6783 3.33325 10.6783 3.33325 10.6784 3.33325C10.6784 3.33325 10.6784 3.33325 10.6784 3.33325C10.6784 3.33325 10.6785 3.33325 10.6785 3.33325C10.6785 3.33325 10.6785 3.33325 10.6785 3.33325C10.6786 3.33325 10.6786 3.33325 10.6786 3.33325C10.6786 3.33325 10.6786 3.33325 10.6787 3.33325C10.6787 3.33325 10.6787 3.33325 10.6787 3.33325C10.6787 3.33325 10.6788 3.33325 10.6788 3.33325C10.6788 3.33325 10.6788 3.33325 10.6788 3.33325C10.6788 3.33325 10.6789 3.33325 10.6789 3.33325C10.6789 3.33325 10.6789 3.33325 10.6789 3.33325C10.679 3.33325 10.679 3.33325 10.679 3.33325C10.679 3.33325 10.679 3.33325 10.6791 3.33325C10.6791 3.33325 10.6791 3.33325 10.6791 3.33325C10.6791 3.33325 10.6792 3.33325 10.6792 3.33325C10.6792 3.33325 10.6792 3.33325 10.6792 3.33325C10.6793 3.33325 10.6793 3.33325 10.6793 3.33325C10.6793 3.33325 10.6793 3.33325 10.6794 3.33325C10.6794 3.33325 10.6794 3.33325 10.6794 3.33325C10.6794 3.33325 10.6795 3.33325 10.6795 3.33325C10.6795 3.33325 10.6795 3.33325 10.6795 3.33325C10.6796 3.33325 10.6796 3.33325 10.6796 3.33325C10.6796 3.33325 10.6796 3.33325 10.6796 3.33325C10.6797 3.33325 10.6797 3.33325 10.6797 3.33325C10.6797 3.33325 10.6797 3.33325 10.6798 3.33325C10.6798 3.33325 10.6798 3.33325 10.6798 3.33325C10.6798 3.33325 10.6799 3.33325 10.6799 3.33325C10.6799 3.33325 10.6799 3.33325 10.6799 3.33325C10.68 3.33325 10.68 3.33325 10.68 3.33325C10.68 3.33325 10.68 3.33325 10.6801 3.33325C10.6801 3.33325 10.6801 3.33325 10.6801 3.33325C10.6801 3.33325 10.6802 3.33325 10.6802 3.33325C10.6802 3.33325 10.6802 3.33325 10.6802 3.33325C10.6803 3.33325 10.6803 3.33325 10.6803 3.33325C10.6803 3.33325 10.6803 3.33325 10.6804 3.33325C10.6804 3.33325 10.6804 3.33325 10.6804 3.33325C10.6804 3.33325 10.6804 3.33325 10.6805 3.33325C10.6805 3.33325 10.6805 3.33325 10.6805 3.33325C10.6805 3.33325 10.6806 3.33325 10.6806 3.33325C10.6806 3.33325 10.6806 3.33325 10.6806 3.33325C10.6807 3.33325 10.6807 3.33325 10.6807 3.33325C10.6807 3.33325 10.6807 3.33325 10.6808 3.33325C10.6808 3.33325 10.6808 3.33325 10.6808 3.33325C10.6808 3.33325 10.6809 3.33325 10.6809 3.33325C10.6809 3.33325 10.6809 3.33325 10.6809 3.33325C10.681 3.33325 10.681 3.33325 10.681 3.33325C10.681 3.33325 10.681 3.33325 10.6811 3.33325C10.6811 3.33325 10.6811 3.33325 10.6811 3.33325C10.6811 3.33325 10.6812 3.33325 10.6812 3.33325C10.6812 3.33325 10.6812 3.33325 10.6812 3.33325C10.6812 3.33325 10.6813 3.33325 10.6813 3.33325C10.6813 3.33325 10.6813 3.33325 10.6813 3.33325C10.6814 3.33325 10.6814 3.33325 10.6814 3.33325C10.6814 3.33325 10.6814 3.33325 10.6815 3.33325C10.6815 3.33325 10.6815 3.33325 10.6815 3.33325C10.6815 3.33325 10.6816 3.33325 10.6816 3.33325C10.6816 3.33325 10.6816 3.33325 10.6816 3.33325C10.6817 3.33325 10.6817 3.33325 10.6817 3.33325C10.6817 3.33325 10.6817 3.33325 10.6818 3.33325C10.6818 3.33325 10.6818 3.33325 10.6818 3.33325C10.6818 3.33325 10.6819 3.33325 10.6819 3.33325C10.6819 3.33325 10.6819 3.33325 10.6819 3.33325C10.6819 3.33325 10.682 3.33325 10.682 3.33325C10.682 3.33325 10.682 3.33325 10.682 3.33325C10.6821 3.33325 10.6821 3.33325 10.6821 3.33325C10.6821 3.33325 10.6821 3.33325 10.6822 3.33325C10.6822 3.33325 10.6822 3.33325 10.6822 3.33325C10.6822 3.33325 10.6823 3.33325 10.6823 3.33325C10.6823 3.33325 10.6823 3.33325 10.6823 3.33325C10.6824 3.33325 10.6824 3.33325 10.6824 3.33325C10.6824 3.33325 10.6824 3.33325 10.6825 3.33325C10.6825 3.33325 10.6825 3.33325 10.6825 3.33325C10.6825 3.33325 10.6826 3.33325 10.6826 3.33325C10.6826 3.33325 10.6826 3.33325 10.6826 3.33325C10.6826 3.33325 10.6827 3.33325 10.6827 3.33325C10.6827 3.33325 10.6827 3.33325 10.6827 3.33325C10.6828 3.33325 10.6828 3.33325 10.6828 3.33325C10.6828 3.33325 10.6828 3.33325 10.6829 3.33325C10.6829 3.33325 10.6829 3.33325 10.6829 3.33325C10.6829 3.33325 10.683 3.33325 10.683 3.33325C10.683 3.33325 10.683 3.33325 10.683 3.33325C10.6831 3.33325 10.6831 3.33325 10.6831 3.33325C10.6831 3.33325 10.6831 3.33325 10.6831 3.33325C10.6832 3.33325 10.6832 3.33325 10.6832 3.33325C10.6832 3.33325 10.6832 3.33325 10.6833 3.33325C10.6833 3.33325 10.6833 3.33325 10.6833 3.33325C10.6833 3.33325 10.6834 3.33325 10.6834 3.33325C10.6834 3.33325 10.6834 3.33325 10.6834 3.33325C10.6835 3.33325 10.6835 3.33325 10.6835 3.33325C10.6835 3.33325 10.6835 3.33325 10.6836 3.33325C10.6836 3.33325 10.6836 3.33325 10.6836 3.33325C10.6836 3.33325 10.6836 3.33325 10.6837 3.33325C10.6837 3.33325 10.6837 3.33325 10.6837 3.33325C10.6837 3.33325 10.6838 3.33325 10.6838 3.33325C10.6838 3.33325 10.6838 3.33325 10.6838 3.33325C10.6839 3.33325 10.6839 3.33325 10.6839 3.33325C10.6839 3.33325 10.6839 3.33325 10.684 3.33325C10.684 3.33325 10.684 3.33325 10.684 3.33325C10.684 3.33325 10.684 3.33325 10.6841 3.33325C10.6841 3.33325 10.6841 3.33325 10.6841 3.33325C10.6841 3.33325 10.6842 3.33325 10.6842 3.33325C10.6842 3.33325 10.6842 3.33325 10.6842 3.33325C10.6843 3.33325 10.6843 3.33325 10.6843 3.33325C10.6843 3.33325 10.6843 3.33325 10.6844 3.33325C10.6844 3.33325 10.6844 3.33325 10.6844 3.33325C10.6844 3.33325 10.6844 3.33325 10.6845 3.33325C10.6845 3.33325 10.6845 3.33325 10.6845 3.33325C10.6845 3.33325 10.6846 3.33325 10.6846 3.33325C10.6846 3.33325 10.6846 3.33325 10.6846 3.33325C10.6847 3.33325 10.6847 3.33325 10.6847 3.33325C10.6847 3.33325 10.6847 3.33325 10.6848 3.33325C10.6848 3.33325 10.6848 3.33325 10.6848 3.33325C10.6848 3.33325 10.6848 3.33325 10.6849 3.33325C10.6849 3.33325 10.6849 3.33325 10.6849 3.33325C10.6849 3.33325 10.685 3.33325 10.685 3.33325C10.685 3.33325 10.685 3.33325 10.685 3.33325C10.6851 3.33325 10.6851 3.33325 10.6851 3.33325C10.6851 3.33325 10.6851 3.33325 10.6851 3.33325C10.6852 3.33325 10.6852 3.33325 10.6852 3.33325C10.6852 3.33325 10.6852 3.33325 10.6853 3.33325C10.6853 3.33325 10.6853 3.33325 10.6853 3.33325C10.6853 3.33325 10.6854 3.33325 10.6854 3.33325C10.6854 3.33325 10.6854 3.33325 10.6854 3.33325C10.6854 3.33325 10.6855 3.33325 10.6855 3.33325C10.6855 3.33325 10.6855 3.33325 10.6855 3.33325C10.6856 3.33325 10.6856 3.33325 10.6856 3.33325C10.6856 3.33325 10.6856 3.33325 10.6856 3.33325C10.6857 3.33325 10.6857 3.33325 10.6857 3.33325C10.6857 3.33325 10.6857 3.33325 10.6858 3.33325C10.6858 3.33325 10.6858 3.33325 10.6858 3.33325C10.6858 3.33325 10.6859 3.33325 10.6859 3.33325C10.6859 3.33325 10.6859 3.33325 10.6859 3.33325C10.6859 3.33325 10.686 3.33325 10.686 3.33325C10.686 3.33325 10.686 3.33325 10.686 3.33325C10.6861 3.33325 10.6861 3.33325 10.6861 3.33325C10.6861 3.33325 10.6861 3.33325 10.6861 3.33325C10.6862 3.33325 10.6862 3.33325 10.6862 3.33325C10.6862 3.33325 10.6862 3.33325 10.6863 3.33325C10.6863 3.33325 10.6863 3.33325 10.6863 3.33325C10.6863 3.33325 10.6864 3.33325 10.6864 3.33325C10.6864 3.33325 10.6864 3.33325 10.6864 3.33325C10.6864 3.33325 10.6865 3.33325 10.6865 3.33325C10.6865 3.33325 10.6865 3.33325 10.6865 3.33325C10.6866 3.33325 10.6866 3.33325 10.6866 3.33325C10.6866 3.33325 10.6866 3.33325 10.6866 3.33325C10.6867 3.33325 10.6867 3.33325 10.6867 3.33325C10.6867 3.33325 10.6867 3.33325 10.6868 3.33325C10.6868 3.33325 10.6868 3.33325 10.6868 3.33325C10.6868 3.33325 10.6868 3.33325 10.6869 3.33325C10.6869 3.33325 10.6869 3.33325 10.6869 3.33325C10.6869 3.33325 10.687 3.33325 10.687 3.33325C10.687 3.33325 10.687 3.33325 10.687 3.33325C10.687 3.33325 10.6871 3.33325 10.6871 3.33325C10.6871 3.33325 10.6871 3.33325 10.6871 3.33325C10.6871 3.33325 10.6872 3.33325 10.6872 3.33325C10.6872 3.33325 10.6872 3.33325 10.6872 3.33325C10.6873 3.33325 10.6873 3.33325 10.6873 3.33325C10.6873 3.33325 10.6873 3.33325 10.6873 3.33325C10.6874 3.33325 10.6874 3.33325 10.6874 3.33325C10.6874 3.33325 10.6874 3.33325 10.6875 3.33325C10.6875 3.33325 10.6875 3.33325 10.6875 3.33325C10.6875 3.33325 10.6875 3.33325 10.6876 3.33325C10.6876 3.33325 10.6876 3.33325 10.6876 3.33325C10.6876 3.33325 10.6876 3.33325 10.6877 3.33325C10.6877 3.33325 10.6877 3.33325 10.6877 3.33325C10.6877 3.33325 10.6878 3.33325 10.6878 3.33325C10.6878 3.33325 10.6878 3.33325 10.6878 3.33325C10.6878 3.33325 10.6879 3.33325 10.6879 3.33325C10.6879 3.33325 10.6879 3.33325 10.6879 3.33325C10.6879 3.33325 10.688 3.33325 10.688 3.33325C10.688 3.33325 10.688 3.33325 10.688 3.33325C10.6881 3.33325 10.6881 3.33325 10.6881 3.33325C10.6881 3.33325 10.6881 3.33325 10.6881 3.33325C10.6882 3.33325 10.6882 3.33325 10.6882 3.33325C10.6882 3.33325 10.6882 3.33325 10.6882 3.33325C10.6883 3.33325 10.6883 3.33325 10.6883 3.33325C10.6883 3.33325 10.6883 3.33325 10.6884 3.33325C10.6884 3.33325 10.6884 3.33325 10.6884 3.33325C10.6884 3.33325 10.6884 3.33325 10.6885 3.33325C10.6885 3.33325 10.6885 3.33325 10.6885 3.33325C10.6885 3.33325 10.6885 3.33325 10.6886 3.33325C10.6886 3.33325 10.6886 3.33325 10.6886 3.33325C10.6886 3.33325 10.6886 3.33325 10.6887 3.33325C10.6887 3.33325 10.6887 3.33325 10.6887 3.33325C10.6887 3.33325 10.6887 3.33325 10.6888 3.33325C10.6888 3.33325 10.6888 3.33325 10.6888 3.33325C10.6888 3.33325 10.6888 3.33325 10.6889 3.33325C10.6889 3.33325 10.6889 3.33325 10.6889 3.33325C10.6889 3.33325 10.689 3.33325 10.689 3.33325C10.689 3.33325 10.689 3.33325 10.689 3.33325C10.689 3.33325 10.6891 3.33325 10.6891 3.33325C10.6891 3.33325 10.6891 3.33325 10.6891 3.33325C10.6891 3.33325 10.6892 3.33325 10.6892 3.33325C10.6892 3.33325 10.6892 3.33325 10.6892 3.33325C10.6892 3.33325 10.6893 3.33325 10.6893 3.33325C10.6893 3.33325 10.6893 3.33325 10.6893 3.33325C10.6893 3.33325 10.6894 3.33325 10.6894 3.33325C10.6894 3.33325 10.6894 3.33325 10.6894 3.33325C10.6894 3.33325 10.6895 3.33325 10.6895 3.33325C10.6895 3.33325 10.6895 3.33325 10.6895 3.33325C10.6895 3.33325 10.6896 3.33325 10.6896 3.33325C10.6896 3.33325 10.6896 3.33325 10.6896 3.33325C10.6896 3.33325 10.6897 3.33325 10.6897 3.33325C10.6897 3.33325 10.6897 3.33325 10.6897 3.33325C10.6897 3.33325 10.6898 3.33325 10.6898 3.33325C10.6898 3.33325 10.6898 3.33325 10.6898 3.33325C10.6898 3.33325 10.6899 3.33325 10.6899 3.33325C10.6899 3.33325 10.6899 3.33325 10.6899 3.33325C10.6899 3.33325 10.69 3.33325 10.69 3.33325C10.69 3.33325 10.69 3.33325 10.69 3.33325C10.69 3.33325 10.6901 3.33325 10.6901 3.33325C10.6901 3.33325 10.6901 3.33325 10.6901 3.33325C10.6901 3.33325 10.6901 3.33325 10.6902 3.33325C10.6902 3.33325 10.6902 3.33325 10.6902 3.33325C10.6902 3.33325 10.6902 3.33325 10.6903 3.33325C10.6903 3.33325 10.6903 3.33325 10.6903 3.33325C10.6903 3.33325 10.6903 3.33325 10.6904 3.33325C10.6904 3.33325 10.6904 3.33325 10.6904 3.33325C10.6904 3.33325 10.6904 3.33325 10.6905 3.33325C10.6905 3.33325 10.6905 3.33325 10.6905 3.33325C10.6905 3.33325 10.6905 3.33325 10.6905 3.33325C10.6906 3.33325 10.6906 3.33325 10.6906 3.33325C10.6906 3.33325 10.6906 3.33325 10.6906 3.33325C10.6907 3.33325 10.6907 3.33325 10.6907 3.33325C10.6907 3.33325 10.6907 3.33325 10.6907 3.33325C10.6908 3.33325 10.6908 3.33325 10.6908 3.33325C10.6908 3.33325 10.6908 3.33325 10.6908 3.33325C10.6908 3.33325 10.6909 3.33325 10.6909 3.33325C10.6909 3.33325 10.6909 3.33325 10.6909 3.33325C10.6909 3.33325 10.691 3.33325 10.691 3.33325C10.691 3.33325 10.691 3.33325 10.691 3.33325C10.691 3.33325 10.691 3.33325 10.6911 3.33325C10.6911 3.33325 10.6911 3.33325 10.6911 3.33325C10.6911 3.33325 10.6911 3.33325 10.6912 3.33325C10.6912 3.33325 10.6912 3.33325 10.6912 3.33325C10.6912 3.33325 10.6912 3.33325 10.6912 3.33325C10.6913 3.33325 10.6913 3.33325 10.6913 3.33325C10.6913 3.33325 10.6913 3.33325 10.6913 3.33325C10.6914 3.33325 10.6914 3.33325 10.6914 3.33325C10.6914 3.33325 10.6914 3.33325 10.6914 3.33325C10.6914 3.33325 10.6915 3.33325 10.6915 3.33325C10.6915 3.33325 10.6915 3.33325 10.6915 3.33325C10.6915 3.33325 10.6916 3.33325 10.6916 3.33325C10.6916 3.33325 10.6916 3.33325 10.6916 3.33325C10.6916 3.33325 10.6916 3.33325 10.6917 3.33325C10.6917 3.33325 10.6917 3.33325 10.6917 3.33325C10.6917 3.33325 10.6917 3.33325 10.6917 3.33325C10.6918 3.33325 10.6918 3.33325 10.6918 3.33325C10.6918 3.33325 10.6918 3.33325 10.6918 3.33325C10.6918 3.33325 10.6919 3.33325 10.6919 3.33325C10.6919 3.33325 10.6919 3.33325 10.6919 3.33325C10.6919 3.33325 10.692 3.33325 10.692 3.33325C10.692 3.33325 10.692 3.33325 10.692 3.33325C10.692 3.33325 10.692 3.33325 10.6921 3.33325C10.6921 3.33325 10.6921 3.33325 10.6921 3.33325C10.6921 3.33325 10.6921 3.33325 10.6921 3.33325C10.6922 3.33325 10.6922 3.33325 10.6922 3.33325C10.6922 3.33325 10.6922 3.33325 10.6922 3.33325C10.6922 3.33325 10.6923 3.33325 10.6923 3.33325C10.6923 3.33325 10.6923 3.33325 10.6923 3.33325C10.6923 3.33325 10.6923 3.33325 10.6924 3.33325C10.6924 3.33325 10.6924 3.33325 10.6924 3.33325C10.6924 3.33325 10.6924 3.33325 10.6924 3.33325C10.6925 3.33325 10.6925 3.33325 10.6925 3.33325C10.6925 3.33325 10.6925 3.33325 10.6925 3.33325C10.6925 3.33325 10.6926 3.33325 10.6926 3.33325C10.6926 3.33325 10.6926 3.33325 10.6926 3.33325C10.6926 3.33325 10.6926 3.33325 10.6926 3.33325C10.6927 3.33325 10.6927 3.33325 10.6927 3.33325C10.6927 3.33325 10.6927 3.33325 10.6927 3.33325C10.6927 3.33325 10.6928 3.33325 10.6928 3.33325C10.6928 3.33325 10.6928 3.33325 10.6928 3.33325C10.6928 3.33325 10.6928 3.33325 10.6929 3.33325C10.6929 3.33325 10.6929 3.33325 10.6929 3.33325C10.6929 3.33325 10.6929 3.33325 10.6929 3.33325C10.6929 3.33325 10.693 3.33325 10.693 3.33325C10.693 3.33325 10.693 3.33325 10.693 3.33325C10.693 3.33325 10.693 3.33325 10.6931 3.33325C10.6931 3.33325 10.6931 3.33325 10.6931 3.33325C10.6931 3.33325 10.6931 3.33325 10.6931 3.33325C10.6932 3.33325 10.6932 3.33325 10.6932 3.33325C10.6932 3.33325 10.6932 3.33325 10.6932 3.33325C10.6932 3.33325 10.6932 3.33325 10.6933 3.33325C10.6933 3.33325 10.6933 3.33325 10.6933 3.33325C10.6933 3.33325 10.6933 3.33325 10.6933 3.33325V1.83325V0.333252C10.6933 0.333252 10.6933 0.333252 10.6933 0.333252C10.6933 0.333252 10.6933 0.333252 10.6933 0.333252C10.6932 0.333252 10.6932 0.333252 10.6932 0.333252C10.6932 0.333252 10.6932 0.333252 10.6932 0.333252C10.6932 0.333252 10.6932 0.333252 10.6931 0.333252C10.6931 0.333252 10.6931 0.333252 10.6931 0.333252C10.6931 0.333252 10.6931 0.333252 10.6931 0.333252C10.693 0.333252 10.693 0.333252 10.693 0.333252C10.693 0.333252 10.693 0.333252 10.693 0.333252C10.693 0.333252 10.6929 0.333252 10.6929 0.333252C10.6929 0.333252 10.6929 0.333252 10.6929 0.333252C10.6929 0.333252 10.6929 0.333252 10.6929 0.333252C10.6928 0.333252 10.6928 0.333252 10.6928 0.333252C10.6928 0.333252 10.6928 0.333252 10.6928 0.333252C10.6928 0.333252 10.6927 0.333252 10.6927 0.333252C10.6927 0.333252 10.6927 0.333252 10.6927 0.333252C10.6927 0.333252 10.6927 0.333252 10.6926 0.333252C10.6926 0.333252 10.6926 0.333252 10.6926 0.333252C10.6926 0.333252 10.6926 0.333252 10.6926 0.333252C10.6926 0.333252 10.6925 0.333252 10.6925 0.333252C10.6925 0.333252 10.6925 0.333252 10.6925 0.333252C10.6925 0.333252 10.6925 0.333252 10.6924 0.333252C10.6924 0.333252 10.6924 0.333252 10.6924 0.333252C10.6924 0.333252 10.6924 0.333252 10.6924 0.333252C10.6923 0.333252 10.6923 0.333252 10.6923 0.333252C10.6923 0.333252 10.6923 0.333252 10.6923 0.333252C10.6923 0.333252 10.6922 0.333252 10.6922 0.333252C10.6922 0.333252 10.6922 0.333252 10.6922 0.333252C10.6922 0.333252 10.6922 0.333252 10.6921 0.333252C10.6921 0.333252 10.6921 0.333252 10.6921 0.333252C10.6921 0.333252 10.6921 0.333252 10.6921 0.333252C10.692 0.333252 10.692 0.333252 10.692 0.333252C10.692 0.333252 10.692 0.333252 10.692 0.333252C10.692 0.333252 10.6919 0.333252 10.6919 0.333252C10.6919 0.333252 10.6919 0.333252 10.6919 0.333252C10.6919 0.333252 10.6918 0.333252 10.6918 0.333252C10.6918 0.333252 10.6918 0.333252 10.6918 0.333252C10.6918 0.333252 10.6918 0.333252 10.6917 0.333252C10.6917 0.333252 10.6917 0.333252 10.6917 0.333252C10.6917 0.333252 10.6917 0.333252 10.6917 0.333252C10.6916 0.333252 10.6916 0.333252 10.6916 0.333252C10.6916 0.333252 10.6916 0.333252 10.6916 0.333252C10.6916 0.333252 10.6915 0.333252 10.6915 0.333252C10.6915 0.333252 10.6915 0.333252 10.6915 0.333252C10.6915 0.333252 10.6914 0.333252 10.6914 0.333252C10.6914 0.333252 10.6914 0.333252 10.6914 0.333252C10.6914 0.333252 10.6914 0.333252 10.6913 0.333252C10.6913 0.333252 10.6913 0.333252 10.6913 0.333252C10.6913 0.333252 10.6913 0.333252 10.6912 0.333252C10.6912 0.333252 10.6912 0.333252 10.6912 0.333252C10.6912 0.333252 10.6912 0.333252 10.6912 0.333252C10.6911 0.333252 10.6911 0.333252 10.6911 0.333252C10.6911 0.333252 10.6911 0.333252 10.6911 0.333252C10.691 0.333252 10.691 0.333252 10.691 0.333252C10.691 0.333252 10.691 0.333252 10.691 0.333252C10.691 0.333252 10.6909 0.333252 10.6909 0.333252C10.6909 0.333252 10.6909 0.333252 10.6909 0.333252C10.6909 0.333252 10.6908 0.333252 10.6908 0.333252C10.6908 0.333252 10.6908 0.333252 10.6908 0.333252C10.6908 0.333252 10.6908 0.333252 10.6907 0.333252C10.6907 0.333252 10.6907 0.333252 10.6907 0.333252C10.6907 0.333252 10.6907 0.333252 10.6906 0.333252C10.6906 0.333252 10.6906 0.333252 10.6906 0.333252C10.6906 0.333252 10.6906 0.333252 10.6905 0.333252C10.6905 0.333252 10.6905 0.333252 10.6905 0.333252C10.6905 0.333252 10.6905 0.333252 10.6905 0.333252C10.6904 0.333252 10.6904 0.333252 10.6904 0.333252C10.6904 0.333252 10.6904 0.333252 10.6904 0.333252C10.6903 0.333252 10.6903 0.333252 10.6903 0.333252C10.6903 0.333252 10.6903 0.333252 10.6903 0.333252C10.6902 0.333252 10.6902 0.333252 10.6902 0.333252C10.6902 0.333252 10.6902 0.333252 10.6902 0.333252C10.6901 0.333252 10.6901 0.333252 10.6901 0.333252C10.6901 0.333252 10.6901 0.333252 10.6901 0.333252C10.6901 0.333252 10.69 0.333252 10.69 0.333252C10.69 0.333252 10.69 0.333252 10.69 0.333252C10.69 0.333252 10.6899 0.333252 10.6899 0.333252C10.6899 0.333252 10.6899 0.333252 10.6899 0.333252C10.6899 0.333252 10.6898 0.333252 10.6898 0.333252C10.6898 0.333252 10.6898 0.333252 10.6898 0.333252C10.6898 0.333252 10.6897 0.333252 10.6897 0.333252C10.6897 0.333252 10.6897 0.333252 10.6897 0.333252C10.6897 0.333252 10.6896 0.333252 10.6896 0.333252C10.6896 0.333252 10.6896 0.333252 10.6896 0.333252C10.6896 0.333252 10.6895 0.333252 10.6895 0.333252C10.6895 0.333252 10.6895 0.333252 10.6895 0.333252C10.6895 0.333252 10.6894 0.333252 10.6894 0.333252C10.6894 0.333252 10.6894 0.333252 10.6894 0.333252C10.6894 0.333252 10.6893 0.333252 10.6893 0.333252C10.6893 0.333252 10.6893 0.333252 10.6893 0.333252C10.6893 0.333252 10.6892 0.333252 10.6892 0.333252C10.6892 0.333252 10.6892 0.333252 10.6892 0.333252C10.6892 0.333252 10.6891 0.333252 10.6891 0.333252C10.6891 0.333252 10.6891 0.333252 10.6891 0.333252C10.6891 0.333252 10.689 0.333252 10.689 0.333252C10.689 0.333252 10.689 0.333252 10.689 0.333252C10.689 0.333252 10.6889 0.333252 10.6889 0.333252C10.6889 0.333252 10.6889 0.333252 10.6889 0.333252C10.6888 0.333252 10.6888 0.333252 10.6888 0.333252C10.6888 0.333252 10.6888 0.333252 10.6888 0.333252C10.6887 0.333252 10.6887 0.333252 10.6887 0.333252C10.6887 0.333252 10.6887 0.333252 10.6887 0.333252C10.6886 0.333252 10.6886 0.333252 10.6886 0.333252C10.6886 0.333252 10.6886 0.333252 10.6886 0.333252C10.6885 0.333252 10.6885 0.333252 10.6885 0.333252C10.6885 0.333252 10.6885 0.333252 10.6885 0.333252C10.6884 0.333252 10.6884 0.333252 10.6884 0.333252C10.6884 0.333252 10.6884 0.333252 10.6884 0.333252C10.6883 0.333252 10.6883 0.333252 10.6883 0.333252C10.6883 0.333252 10.6883 0.333252 10.6882 0.333252C10.6882 0.333252 10.6882 0.333252 10.6882 0.333252C10.6882 0.333252 10.6882 0.333252 10.6881 0.333252C10.6881 0.333252 10.6881 0.333252 10.6881 0.333252C10.6881 0.333252 10.6881 0.333252 10.688 0.333252C10.688 0.333252 10.688 0.333252 10.688 0.333252C10.688 0.333252 10.6879 0.333252 10.6879 0.333252C10.6879 0.333252 10.6879 0.333252 10.6879 0.333252C10.6879 0.333252 10.6878 0.333252 10.6878 0.333252C10.6878 0.333252 10.6878 0.333252 10.6878 0.333252C10.6878 0.333252 10.6877 0.333252 10.6877 0.333252C10.6877 0.333252 10.6877 0.333252 10.6877 0.333252C10.6876 0.333252 10.6876 0.333252 10.6876 0.333252C10.6876 0.333252 10.6876 0.333252 10.6876 0.333252C10.6875 0.333252 10.6875 0.333252 10.6875 0.333252C10.6875 0.333252 10.6875 0.333252 10.6875 0.333252C10.6874 0.333252 10.6874 0.333252 10.6874 0.333252C10.6874 0.333252 10.6874 0.333252 10.6873 0.333252C10.6873 0.333252 10.6873 0.333252 10.6873 0.333252C10.6873 0.333252 10.6873 0.333252 10.6872 0.333252C10.6872 0.333252 10.6872 0.333252 10.6872 0.333252C10.6872 0.333252 10.6871 0.333252 10.6871 0.333252C10.6871 0.333252 10.6871 0.333252 10.6871 0.333252C10.6871 0.333252 10.687 0.333252 10.687 0.333252C10.687 0.333252 10.687 0.333252 10.687 0.333252C10.687 0.333252 10.6869 0.333252 10.6869 0.333252C10.6869 0.333252 10.6869 0.333252 10.6869 0.333252C10.6868 0.333252 10.6868 0.333252 10.6868 0.333252C10.6868 0.333252 10.6868 0.333252 10.6868 0.333252C10.6867 0.333252 10.6867 0.333252 10.6867 0.333252C10.6867 0.333252 10.6867 0.333252 10.6866 0.333252C10.6866 0.333252 10.6866 0.333252 10.6866 0.333252C10.6866 0.333252 10.6866 0.333252 10.6865 0.333252C10.6865 0.333252 10.6865 0.333252 10.6865 0.333252C10.6865 0.333252 10.6864 0.333252 10.6864 0.333252C10.6864 0.333252 10.6864 0.333252 10.6864 0.333252C10.6864 0.333252 10.6863 0.333252 10.6863 0.333252C10.6863 0.333252 10.6863 0.333252 10.6863 0.333252C10.6862 0.333252 10.6862 0.333252 10.6862 0.333252C10.6862 0.333252 10.6862 0.333252 10.6861 0.333252C10.6861 0.333252 10.6861 0.333252 10.6861 0.333252C10.6861 0.333252 10.6861 0.333252 10.686 0.333252C10.686 0.333252 10.686 0.333252 10.686 0.333252C10.686 0.333252 10.6859 0.333252 10.6859 0.333252C10.6859 0.333252 10.6859 0.333252 10.6859 0.333252C10.6859 0.333252 10.6858 0.333252 10.6858 0.333252C10.6858 0.333252 10.6858 0.333252 10.6858 0.333252C10.6857 0.333252 10.6857 0.333252 10.6857 0.333252C10.6857 0.333252 10.6857 0.333252 10.6856 0.333252C10.6856 0.333252 10.6856 0.333252 10.6856 0.333252C10.6856 0.333252 10.6856 0.333252 10.6855 0.333252C10.6855 0.333252 10.6855 0.333252 10.6855 0.333252C10.6855 0.333252 10.6854 0.333252 10.6854 0.333252C10.6854 0.333252 10.6854 0.333252 10.6854 0.333252C10.6854 0.333252 10.6853 0.333252 10.6853 0.333252C10.6853 0.333252 10.6853 0.333252 10.6853 0.333252C10.6852 0.333252 10.6852 0.333252 10.6852 0.333252C10.6852 0.333252 10.6852 0.333252 10.6851 0.333252C10.6851 0.333252 10.6851 0.333252 10.6851 0.333252C10.6851 0.333252 10.6851 0.333252 10.685 0.333252C10.685 0.333252 10.685 0.333252 10.685 0.333252C10.685 0.333252 10.6849 0.333252 10.6849 0.333252C10.6849 0.333252 10.6849 0.333252 10.6849 0.333252C10.6848 0.333252 10.6848 0.333252 10.6848 0.333252C10.6848 0.333252 10.6848 0.333252 10.6848 0.333252C10.6847 0.333252 10.6847 0.333252 10.6847 0.333252C10.6847 0.333252 10.6847 0.333252 10.6846 0.333252C10.6846 0.333252 10.6846 0.333252 10.6846 0.333252C10.6846 0.333252 10.6845 0.333252 10.6845 0.333252C10.6845 0.333252 10.6845 0.333252 10.6845 0.333252C10.6844 0.333252 10.6844 0.333252 10.6844 0.333252C10.6844 0.333252 10.6844 0.333252 10.6844 0.333252C10.6843 0.333252 10.6843 0.333252 10.6843 0.333252C10.6843 0.333252 10.6843 0.333252 10.6842 0.333252C10.6842 0.333252 10.6842 0.333252 10.6842 0.333252C10.6842 0.333252 10.6841 0.333252 10.6841 0.333252C10.6841 0.333252 10.6841 0.333252 10.6841 0.333252C10.684 0.333252 10.684 0.333252 10.684 0.333252C10.684 0.333252 10.684 0.333252 10.684 0.333252C10.6839 0.333252 10.6839 0.333252 10.6839 0.333252C10.6839 0.333252 10.6839 0.333252 10.6838 0.333252C10.6838 0.333252 10.6838 0.333252 10.6838 0.333252C10.6838 0.333252 10.6837 0.333252 10.6837 0.333252C10.6837 0.333252 10.6837 0.333252 10.6837 0.333252C10.6836 0.333252 10.6836 0.333252 10.6836 0.333252C10.6836 0.333252 10.6836 0.333252 10.6836 0.333252C10.6835 0.333252 10.6835 0.333252 10.6835 0.333252C10.6835 0.333252 10.6835 0.333252 10.6834 0.333252C10.6834 0.333252 10.6834 0.333252 10.6834 0.333252C10.6834 0.333252 10.6833 0.333252 10.6833 0.333252C10.6833 0.333252 10.6833 0.333252 10.6833 0.333252C10.6832 0.333252 10.6832 0.333252 10.6832 0.333252C10.6832 0.333252 10.6832 0.333252 10.6831 0.333252C10.6831 0.333252 10.6831 0.333252 10.6831 0.333252C10.6831 0.333252 10.6831 0.333252 10.683 0.333252C10.683 0.333252 10.683 0.333252 10.683 0.333252C10.683 0.333252 10.6829 0.333252 10.6829 0.333252C10.6829 0.333252 10.6829 0.333252 10.6829 0.333252C10.6828 0.333252 10.6828 0.333252 10.6828 0.333252C10.6828 0.333252 10.6828 0.333252 10.6827 0.333252C10.6827 0.333252 10.6827 0.333252 10.6827 0.333252C10.6827 0.333252 10.6826 0.333252 10.6826 0.333252C10.6826 0.333252 10.6826 0.333252 10.6826 0.333252C10.6826 0.333252 10.6825 0.333252 10.6825 0.333252C10.6825 0.333252 10.6825 0.333252 10.6825 0.333252C10.6824 0.333252 10.6824 0.333252 10.6824 0.333252C10.6824 0.333252 10.6824 0.333252 10.6823 0.333252C10.6823 0.333252 10.6823 0.333252 10.6823 0.333252C10.6823 0.333252 10.6822 0.333252 10.6822 0.333252C10.6822 0.333252 10.6822 0.333252 10.6822 0.333252C10.6821 0.333252 10.6821 0.333252 10.6821 0.333252C10.6821 0.333252 10.6821 0.333252 10.682 0.333252C10.682 0.333252 10.682 0.333252 10.682 0.333252C10.682 0.333252 10.6819 0.333252 10.6819 0.333252C10.6819 0.333252 10.6819 0.333252 10.6819 0.333252C10.6819 0.333252 10.6818 0.333252 10.6818 0.333252C10.6818 0.333252 10.6818 0.333252 10.6818 0.333252C10.6817 0.333252 10.6817 0.333252 10.6817 0.333252C10.6817 0.333252 10.6817 0.333252 10.6816 0.333252C10.6816 0.333252 10.6816 0.333252 10.6816 0.333252C10.6816 0.333252 10.6815 0.333252 10.6815 0.333252C10.6815 0.333252 10.6815 0.333252 10.6815 0.333252C10.6814 0.333252 10.6814 0.333252 10.6814 0.333252C10.6814 0.333252 10.6814 0.333252 10.6813 0.333252C10.6813 0.333252 10.6813 0.333252 10.6813 0.333252C10.6813 0.333252 10.6812 0.333252 10.6812 0.333252C10.6812 0.333252 10.6812 0.333252 10.6812 0.333252C10.6812 0.333252 10.6811 0.333252 10.6811 0.333252C10.6811 0.333252 10.6811 0.333252 10.6811 0.333252C10.681 0.333252 10.681 0.333252 10.681 0.333252C10.681 0.333252 10.681 0.333252 10.6809 0.333252C10.6809 0.333252 10.6809 0.333252 10.6809 0.333252C10.6809 0.333252 10.6808 0.333252 10.6808 0.333252C10.6808 0.333252 10.6808 0.333252 10.6808 0.333252C10.6807 0.333252 10.6807 0.333252 10.6807 0.333252C10.6807 0.333252 10.6807 0.333252 10.6806 0.333252C10.6806 0.333252 10.6806 0.333252 10.6806 0.333252C10.6806 0.333252 10.6805 0.333252 10.6805 0.333252C10.6805 0.333252 10.6805 0.333252 10.6805 0.333252C10.6804 0.333252 10.6804 0.333252 10.6804 0.333252C10.6804 0.333252 10.6804 0.333252 10.6804 0.333252C10.6803 0.333252 10.6803 0.333252 10.6803 0.333252C10.6803 0.333252 10.6803 0.333252 10.6802 0.333252C10.6802 0.333252 10.6802 0.333252 10.6802 0.333252C10.6802 0.333252 10.6801 0.333252 10.6801 0.333252C10.6801 0.333252 10.6801 0.333252 10.6801 0.333252C10.68 0.333252 10.68 0.333252 10.68 0.333252C10.68 0.333252 10.68 0.333252 10.6799 0.333252C10.6799 0.333252 10.6799 0.333252 10.6799 0.333252C10.6799 0.333252 10.6798 0.333252 10.6798 0.333252C10.6798 0.333252 10.6798 0.333252 10.6798 0.333252C10.6797 0.333252 10.6797 0.333252 10.6797 0.333252C10.6797 0.333252 10.6797 0.333252 10.6796 0.333252C10.6796 0.333252 10.6796 0.333252 10.6796 0.333252C10.6796 0.333252 10.6796 0.333252 10.6795 0.333252C10.6795 0.333252 10.6795 0.333252 10.6795 0.333252C10.6795 0.333252 10.6794 0.333252 10.6794 0.333252C10.6794 0.333252 10.6794 0.333252 10.6794 0.333252C10.6793 0.333252 10.6793 0.333252 10.6793 0.333252C10.6793 0.333252 10.6793 0.333252 10.6792 0.333252C10.6792 0.333252 10.6792 0.333252 10.6792 0.333252C10.6792 0.333252 10.6791 0.333252 10.6791 0.333252C10.6791 0.333252 10.6791 0.333252 10.6791 0.333252C10.679 0.333252 10.679 0.333252 10.679 0.333252C10.679 0.333252 10.679 0.333252 10.6789 0.333252C10.6789 0.333252 10.6789 0.333252 10.6789 0.333252C10.6789 0.333252 10.6788 0.333252 10.6788 0.333252C10.6788 0.333252 10.6788 0.333252 10.6788 0.333252C10.6788 0.333252 10.6787 0.333252 10.6787 0.333252C10.6787 0.333252 10.6787 0.333252 10.6787 0.333252C10.6786 0.333252 10.6786 0.333252 10.6786 0.333252C10.6786 0.333252 10.6786 0.333252 10.6785 0.333252C10.6785 0.333252 10.6785 0.333252 10.6785 0.333252C10.6785 0.333252 10.6784 0.333252 10.6784 0.333252C10.6784 0.333252 10.6784 0.333252 10.6784 0.333252C10.6783 0.333252 10.6783 0.333252 10.6783 0.333252C10.6783 0.333252 10.6783 0.333252 10.6782 0.333252C10.6782 0.333252 10.6782 0.333252 10.6782 0.333252C10.6782 0.333252 10.6781 0.333252 10.6781 0.333252C10.6781 0.333252 10.6781 0.333252 10.6781 0.333252C10.6781 0.333252 10.678 0.333252 10.678 0.333252C10.678 0.333252 10.678 0.333252 10.678 0.333252C10.6779 0.333252 10.6779 0.333252 10.6779 0.333252C10.6779 0.333252 10.6779 0.333252 10.6778 0.333252C10.6778 0.333252 10.6778 0.333252 10.6778 0.333252C10.6778 0.333252 10.6777 0.333252 10.6777 0.333252C10.6777 0.333252 10.6777 0.333252 10.6777 0.333252C10.6776 0.333252 10.6776 0.333252 10.6776 0.333252C10.6776 0.333252 10.6776 0.333252 10.6775 0.333252C10.6775 0.333252 10.6775 0.333252 10.6775 0.333252C10.6775 0.333252 10.6775 0.333252 10.6774 0.333252C10.6774 0.333252 10.6774 0.333252 10.6774 0.333252C10.6774 0.333252 10.6773 0.333252 10.6773 0.333252C10.6773 0.333252 10.6773 0.333252 10.6773 0.333252C10.6772 0.333252 10.6772 0.333252 10.6772 0.333252C10.6772 0.333252 10.6772 0.333252 10.6771 0.333252C10.6771 0.333252 10.6771 0.333252 10.6771 0.333252C10.6771 0.333252 10.677 0.333252 10.677 0.333252C10.677 0.333252 10.677 0.333252 10.677 0.333252C10.6769 0.333252 10.6769 0.333252 10.6769 0.333252C10.6769 0.333252 10.6769 0.333252 10.6769 0.333252C10.6768 0.333252 10.6768 0.333252 10.6768 0.333252C10.6768 0.333252 10.6768 0.333252 10.6767 0.333252C10.6767 0.333252 10.6767 0.333252 10.6767 0.333252C10.6767 0.333252 10.6766 0.333252 10.6766 0.333252C10.6766 0.333252 10.6766 0.333252 10.6766 0.333252C10.6765 0.333252 10.6765 0.333252 10.6765 0.333252C10.6765 0.333252 10.6765 0.333252 10.6764 0.333252C10.6764 0.333252 10.6764 0.333252 10.6764 0.333252C10.6764 0.333252 10.6764 0.333252 10.6763 0.333252C10.6763 0.333252 10.6763 0.333252 10.6763 0.333252C10.6763 0.333252 10.6762 0.333252 10.6762 0.333252C10.6762 0.333252 10.6762 0.333252 10.6762 0.333252C10.6761 0.333252 10.6761 0.333252 10.6761 0.333252C10.6761 0.333252 10.6761 0.333252 10.676 0.333252C10.676 0.333252 10.676 0.333252 10.676 0.333252C10.676 0.333252 10.676 0.333252 10.6759 0.333252C10.6759 0.333252 10.6759 0.333252 10.6759 0.333252C10.6759 0.333252 10.6758 0.333252 10.6758 0.333252C10.6758 0.333252 10.6758 0.333252 10.6758 0.333252C10.6757 0.333252 10.6757 0.333252 10.6757 0.333252C10.6757 0.333252 10.6757 0.333252 10.6756 0.333252C10.6756 0.333252 10.6756 0.333252 10.6756 0.333252C10.6756 0.333252 10.6756 0.333252 10.6755 0.333252C10.6755 0.333252 10.6755 0.333252 10.6755 0.333252C10.6755 0.333252 10.6754 0.333252 10.6754 0.333252C10.6754 0.333252 10.6754 0.333252 10.6754 0.333252C10.6753 0.333252 10.6753 0.333252 10.6753 0.333252C10.6753 0.333252 10.6753 0.333252 10.6753 0.333252C10.6752 0.333252 10.6752 0.333252 10.6752 0.333252C10.6752 0.333252 10.6752 0.333252 10.6751 0.333252C10.6751 0.333252 10.6751 0.333252 10.6751 0.333252C10.6751 0.333252 10.675 0.333252 10.675 0.333252C10.675 0.333252 10.675 0.333252 10.675 0.333252C10.6749 0.333252 10.6749 0.333252 10.6749 0.333252C10.6749 0.333252 10.6749 0.333252 10.6749 0.333252C10.6748 0.333252 10.6748 0.333252 10.6748 0.333252C10.6748 0.333252 10.6748 0.333252 10.6747 0.333252C10.6747 0.333252 10.6747 0.333252 10.6747 0.333252C10.6747 0.333252 10.6747 0.333252 10.6746 0.333252C10.6746 0.333252 10.6746 0.333252 10.6746 0.333252C10.6746 0.333252 10.6745 0.333252 10.6745 0.333252C10.6745 0.333252 10.6745 0.333252 10.6745 0.333252C10.6744 0.333252 10.6744 0.333252 10.6744 0.333252C10.6744 0.333252 10.6744 0.333252 10.6744 0.333252C10.6743 0.333252 10.6743 0.333252 10.6743 0.333252C10.6743 0.333252 10.6743 0.333252 10.6742 0.333252C10.6742 0.333252 10.6742 0.333252 10.6742 0.333252C10.6742 0.333252 10.6741 0.333252 10.6741 0.333252C10.6741 0.333252 10.6741 0.333252 10.6741 0.333252C10.6741 0.333252 10.674 0.333252 10.674 0.333252C10.674 0.333252 10.674 0.333252 10.674 0.333252C10.6739 0.333252 10.6739 0.333252 10.6739 0.333252C10.6739 0.333252 10.6739 0.333252 10.6739 0.333252C10.6738 0.333252 10.6738 0.333252 10.6738 0.333252C10.6738 0.333252 10.6738 0.333252 10.6737 0.333252C10.6737 0.333252 10.6737 0.333252 10.6737 0.333252C10.6737 0.333252 10.6737 0.333252 10.6736 0.333252C10.6736 0.333252 10.6736 0.333252 10.6736 0.333252C10.6736 0.333252 10.6735 0.333252 10.6735 0.333252C10.6735 0.333252 10.6735 0.333252 10.6735 0.333252C10.6734 0.333252 10.6734 0.333252 10.6734 0.333252C10.6734 0.333252 10.6734 0.333252 10.6734 0.333252C10.6733 0.333252 10.6733 0.333252 10.6733 0.333252C10.6733 0.333252 10.6733 0.333252 10.6732 0.333252C10.6732 0.333252 10.6732 0.333252 10.6732 0.333252C10.6732 0.333252 10.6732 0.333252 10.6731 0.333252C10.6731 0.333252 10.6731 0.333252 10.6731 0.333252C10.6731 0.333252 10.673 0.333252 10.673 0.333252C10.673 0.333252 10.673 0.333252 10.673 0.333252C10.673 0.333252 10.6729 0.333252 10.6729 0.333252C10.6729 0.333252 10.6729 0.333252 10.6729 0.333252C10.6729 0.333252 10.6728 0.333252 10.6728 0.333252C10.6728 0.333252 10.6728 0.333252 10.6728 0.333252C10.6727 0.333252 10.6727 0.333252 10.6727 0.333252C10.6727 0.333252 10.6727 0.333252 10.6727 0.333252C10.6726 0.333252 10.6726 0.333252 10.6726 0.333252C10.6726 0.333252 10.6726 0.333252 10.6725 0.333252C10.6725 0.333252 10.6725 0.333252 10.6725 0.333252C10.6725 0.333252 10.6725 0.333252 10.6724 0.333252C10.6724 0.333252 10.6724 0.333252 10.6724 0.333252C10.6724 0.333252 10.6724 0.333252 10.6723 0.333252C10.6723 0.333252 10.6723 0.333252 10.6723 0.333252C10.6723 0.333252 10.6722 0.333252 10.6722 0.333252C10.6722 0.333252 10.6722 0.333252 10.6722 0.333252C10.6722 0.333252 10.6721 0.333252 10.6721 0.333252C10.6721 0.333252 10.6721 0.333252 10.6721 0.333252C10.6721 0.333252 10.672 0.333252 10.672 0.333252C10.672 0.333252 10.672 0.333252 10.672 0.333252C10.6719 0.333252 10.6719 0.333252 10.6719 0.333252C10.6719 0.333252 10.6719 0.333252 10.6719 0.333252C10.6718 0.333252 10.6718 0.333252 10.6718 0.333252C10.6718 0.333252 10.6718 0.333252 10.6718 0.333252C10.6717 0.333252 10.6717 0.333252 10.6717 0.333252C10.6717 0.333252 10.6717 0.333252 10.6717 0.333252C10.6716 0.333252 10.6716 0.333252 10.6716 0.333252C10.6716 0.333252 10.6716 0.333252 10.6715 0.333252C10.6715 0.333252 10.6715 0.333252 10.6715 0.333252C10.6715 0.333252 10.6715 0.333252 10.6714 0.333252C10.6714 0.333252 10.6714 0.333252 10.6714 0.333252C10.6714 0.333252 10.6714 0.333252 10.6713 0.333252C10.6713 0.333252 10.6713 0.333252 10.6713 0.333252C10.6713 0.333252 10.6713 0.333252 10.6712 0.333252C10.6712 0.333252 10.6712 0.333252 10.6712 0.333252C10.6712 0.333252 10.6712 0.333252 10.6711 0.333252C10.6711 0.333252 10.6711 0.333252 10.6711 0.333252C10.6711 0.333252 10.671 0.333252 10.671 0.333252C10.671 0.333252 10.671 0.333252 10.671 0.333252C10.671 0.333252 10.6709 0.333252 10.6709 0.333252C10.6709 0.333252 10.6709 0.333252 10.6709 0.333252C10.6709 0.333252 10.6708 0.333252 10.6708 0.333252C10.6708 0.333252 10.6708 0.333252 10.6708 0.333252C10.6708 0.333252 10.6707 0.333252 10.6707 0.333252C10.6707 0.333252 10.6707 0.333252 10.6707 0.333252C10.6707 0.333252 10.6706 0.333252 10.6706 0.333252C10.6706 0.333252 10.6706 0.333252 10.6706 0.333252C10.6706 0.333252 10.6705 0.333252 10.6705 0.333252C10.6705 0.333252 10.6705 0.333252 10.6705 0.333252C10.6705 0.333252 10.6704 0.333252 10.6704 0.333252C10.6704 0.333252 10.6704 0.333252 10.6704 0.333252C10.6704 0.333252 10.6703 0.333252 10.6703 0.333252C10.6703 0.333252 10.6703 0.333252 10.6703 0.333252C10.6703 0.333252 10.6702 0.333252 10.6702 0.333252C10.6702 0.333252 10.6702 0.333252 10.6702 0.333252C10.6702 0.333252 10.6701 0.333252 10.6701 0.333252C10.6701 0.333252 10.6701 0.333252 10.6701 0.333252C10.6701 0.333252 10.67 0.333252 10.67 0.333252C10.67 0.333252 10.67 0.333252 10.67 0.333252C10.67 0.333252 10.67 0.333252 10.6699 0.333252C10.6699 0.333252 10.6699 0.333252 10.6699 0.333252C10.6699 0.333252 10.6699 0.333252 10.6698 0.333252C10.6698 0.333252 10.6698 0.333252 10.6698 0.333252C10.6698 0.333252 10.6698 0.333252 10.6697 0.333252C10.6697 0.333252 10.6697 0.333252 10.6697 0.333252C10.6697 0.333252 10.6697 0.333252 10.6696 0.333252C10.6696 0.333252 10.6696 0.333252 10.6696 0.333252C10.6696 0.333252 10.6696 0.333252 10.6695 0.333252C10.6695 0.333252 10.6695 0.333252 10.6695 0.333252C10.6695 0.333252 10.6695 0.333252 10.6695 0.333252C10.6694 0.333252 10.6694 0.333252 10.6694 0.333252C10.6694 0.333252 10.6694 0.333252 10.6694 0.333252C10.6693 0.333252 10.6693 0.333252 10.6693 0.333252C10.6693 0.333252 10.6693 0.333252 10.6693 0.333252C10.6692 0.333252 10.6692 0.333252 10.6692 0.333252C10.6692 0.333252 10.6692 0.333252 10.6692 0.333252C10.6692 0.333252 10.6691 0.333252 10.6691 0.333252C10.6691 0.333252 10.6691 0.333252 10.6691 0.333252C10.6691 0.333252 10.669 0.333252 10.669 0.333252C10.669 0.333252 10.669 0.333252 10.669 0.333252C10.669 0.333252 10.669 0.333252 10.6689 0.333252C10.6689 0.333252 10.6689 0.333252 10.6689 0.333252C10.6689 0.333252 10.6689 0.333252 10.6688 0.333252C10.6688 0.333252 10.6688 0.333252 10.6688 0.333252C10.6688 0.333252 10.6688 0.333252 10.6688 0.333252C10.6687 0.333252 10.6687 0.333252 10.6687 0.333252C10.6687 0.333252 10.6687 0.333252 10.6687 0.333252C10.6686 0.333252 10.6686 0.333252 10.6686 0.333252C10.6686 0.333252 10.6686 0.333252 10.6686 0.333252C10.6686 0.333252 10.6685 0.333252 10.6685 0.333252C10.6685 0.333252 10.6685 0.333252 10.6685 0.333252C10.6685 0.333252 10.6684 0.333252 10.6684 0.333252C10.6684 0.333252 10.6684 0.333252 10.6684 0.333252C10.6684 0.333252 10.6684 0.333252 10.6683 0.333252C10.6683 0.333252 10.6683 0.333252 10.6683 0.333252C10.6683 0.333252 10.6683 0.333252 10.6683 0.333252C10.6682 0.333252 10.6682 0.333252 10.6682 0.333252C10.6682 0.333252 10.6682 0.333252 10.6682 0.333252C10.6682 0.333252 10.6681 0.333252 10.6681 0.333252C10.6681 0.333252 10.6681 0.333252 10.6681 0.333252C10.6681 0.333252 10.668 0.333252 10.668 0.333252C10.668 0.333252 10.668 0.333252 10.668 0.333252C10.668 0.333252 10.668 0.333252 10.6679 0.333252C10.6679 0.333252 10.6679 0.333252 10.6679 0.333252C10.6679 0.333252 10.6679 0.333252 10.6679 0.333252C10.6678 0.333252 10.6678 0.333252 10.6678 0.333252C10.6678 0.333252 10.6678 0.333252 10.6678 0.333252C10.6678 0.333252 10.6677 0.333252 10.6677 0.333252C10.6677 0.333252 10.6677 0.333252 10.6677 0.333252C10.6677 0.333252 10.6677 0.333252 10.6676 0.333252C10.6676 0.333252 10.6676 0.333252 10.6676 0.333252C10.6676 0.333252 10.6676 0.333252 10.6676 0.333252C10.6675 0.333252 10.6675 0.333252 10.6675 0.333252C10.6675 0.333252 10.6675 0.333252 10.6675 0.333252C10.6675 0.333252 10.6674 0.333252 10.6674 0.333252C10.6674 0.333252 10.6674 0.333252 10.6674 0.333252C10.6674 0.333252 10.6674 0.333252 10.6674 0.333252C10.6673 0.333252 10.6673 0.333252 10.6673 0.333252C10.6673 0.333252 10.6673 0.333252 10.6673 0.333252C10.6673 0.333252 10.6672 0.333252 10.6672 0.333252C10.6672 0.333252 10.6672 0.333252 10.6672 0.333252C10.6672 0.333252 10.6672 0.333252 10.6671 0.333252C10.6671 0.333252 10.6671 0.333252 10.6671 0.333252C10.6671 0.333252 10.6671 0.333252 10.6671 0.333252C10.6671 0.333252 10.667 0.333252 10.667 0.333252C10.667 0.333252 10.667 0.333252 10.667 0.333252C10.667 0.333252 10.667 0.333252 10.6669 0.333252C10.6669 0.333252 10.6669 0.333252 10.6669 0.333252C10.6669 0.333252 10.6669 0.333252 10.6669 0.333252C10.6669 0.333252 10.6668 0.333252 10.6668 0.333252C10.6668 0.333252 10.6668 0.333252 10.6668 0.333252C10.6668 0.333252 10.6668 0.333252 10.6667 0.333252C10.6667 0.333252 10.6667 0.333252 10.6667 0.333252C10.6667 0.333252 10.6667 0.333252 10.6667 0.333252V1.83325ZM10.6933 1.83325L10.6095 3.33091C11.7829 3.39657 12.2399 3.68584 12.4687 3.96229C12.7395 4.28932 13 4.96301 13 6.43325H14.5H16C16 4.74349 15.7272 3.19385 14.7796 2.04921C13.7901 0.853997 12.3437 0.423263 10.7771 0.335595L10.6933 1.83325ZM14.5 6.43325H13V10.5466H14.5H16V6.43325H14.5ZM14.5 10.5466H13C13 11.923 12.7978 12.6075 12.4965 12.9737C12.2534 13.2693 11.6769 13.6666 10 13.6666V15.1666V16.6666C12.0698 16.6666 13.7432 16.1806 14.8135 14.8795C15.8256 13.649 16 12.0235 16 10.5466H14.5ZM5.33333 2.83325L5.24776 1.33569C4.2446 1.39302 3.00314 1.58664 2.10596 2.57512C1.23816 3.53122 1 4.89428 1 6.43325H2.5H4C4 5.06556 4.24517 4.68195 4.32738 4.59138C4.38019 4.53319 4.5554 4.38015 5.41891 4.33081L5.33333 2.83325ZM2.5 6.43325H1V10.5466H2.5H4V6.43325H2.5ZM2.5 10.5466H1C1 11.7864 1.08167 13.2329 1.97745 14.286C2.933 15.4093 4.41699 15.6666 6 15.6666V14.1666V12.6666C4.56967 12.6666 4.30367 12.3905 4.26255 12.3422C4.16166 12.2236 4 11.8601 4 10.5466H2.5ZM6 14.1666V15.6666H10V14.1666V12.6666H6V14.1666ZM10 14.1666V15.6666C11.583 15.6666 13.067 15.4093 14.0225 14.286C14.9183 13.2329 15 11.7864 15 10.5466H13.5H12C12 11.8601 11.8383 12.2236 11.7375 12.3422C11.6963 12.3905 11.4303 12.6666 10 12.6666V14.1666ZM13.5 10.5466H15V6.43325H13.5H12V10.5466H13.5ZM13.5 6.43325H15C15 4.89898 14.764 3.53503 13.8948 2.57753C12.9964 1.58785 11.751 1.39292 10.738 1.33564L10.6533 2.83325L10.5687 4.33086C11.4423 4.38025 11.6203 4.53532 11.6735 4.59397C11.756 4.68481 12 5.06752 12 6.43325H13.5ZM10.6533 2.83325V1.33325H5.33333V2.83325V4.33325H10.6533V2.83325Z" fill="#767A8C" mask="url(#path-5-inside-3_6939_10473)"/>
<mask id="path-7-inside-4_6939_10473" fill="white">
<path d="M13.8327 12.2334H2.16602C1.89268 12.2334 1.66602 12.0067 1.66602 11.7334C1.66602 11.4601 1.89268 11.2334 2.16602 11.2334H13.8327C14.106 11.2334 14.3327 11.4601 14.3327 11.7334C14.3327 12.0067 14.106 12.2334 13.8327 12.2334Z"/>
</mask>
<path d="M13.8327 12.2334H2.16602C1.89268 12.2334 1.66602 12.0067 1.66602 11.7334C1.66602 11.4601 1.89268 11.2334 2.16602 11.2334H13.8327C14.106 11.2334 14.3327 11.4601 14.3327 11.7334C14.3327 12.0067 14.106 12.2334 13.8327 12.2334Z" fill="#171717"/>
<path d="M13.8327 12.2334V10.7334H2.16602V12.2334V13.7334H13.8327V12.2334ZM2.16602 12.2334V10.7334C2.72111 10.7334 3.16602 11.1783 3.16602 11.7334H1.66602H0.166016C0.166016 12.8352 1.06426 13.7334 2.16602 13.7334V12.2334ZM1.66602 11.7334H3.16602C3.16602 12.2885 2.72111 12.7334 2.16602 12.7334V11.2334V9.7334C1.06426 9.7334 0.166016 10.6316 0.166016 11.7334H1.66602ZM2.16602 11.2334V12.7334H13.8327V11.2334V9.7334H2.16602V11.2334ZM13.8327 11.2334V12.7334C13.2776 12.7334 12.8327 12.2885 12.8327 11.7334H14.3327H15.8327C15.8327 10.6316 14.9344 9.7334 13.8327 9.7334V11.2334ZM14.3327 11.7334H12.8327C12.8327 11.1783 13.2776 10.7334 13.8327 10.7334V12.2334V13.7334C14.9344 13.7334 15.8327 12.8352 15.8327 11.7334H14.3327Z" fill="#767A8C" mask="url(#path-7-inside-4_6939_10473)"/>
<path d="M8.00065 5.5C7.18065 5.5 6.48732 5.94667 6.48732 6.81333C6.48732 7.22667 6.68065 7.54 6.97398 7.74C6.56732 7.98 6.33398 8.36667 6.33398 8.82C6.33398 9.64667 6.96732 10.16 8.00065 10.16C9.02732 10.16 9.66732 9.64667 9.66732 8.82C9.66732 8.36667 9.43398 7.97333 9.02065 7.74C9.32065 7.53333 9.50732 7.22667 9.50732 6.81333C9.50732 5.94667 8.82065 5.5 8.00065 5.5ZM8.00065 7.39333C7.65398 7.39333 7.40065 7.18667 7.40065 6.86C7.40065 6.52667 7.65398 6.33333 8.00065 6.33333C8.34732 6.33333 8.60065 6.52667 8.60065 6.86C8.60065 7.18667 8.34732 7.39333 8.00065 7.39333ZM8.00065 9.33333C7.56065 9.33333 7.24065 9.11333 7.24065 8.71333C7.24065 8.31333 7.56065 8.1 8.00065 8.1C8.44065 8.1 8.76065 8.32 8.76065 8.71333C8.76065 9.11333 8.44065 9.33333 8.00065 9.33333Z" fill="#767A8C"/>
</svg>
