<svg width="19" height="18" viewBox="0 0 19 18" fill="none" xmlns="http://www.w3.org/2000/svg">
<g clip-path="url(#clip0_5149_11443)">
<path d="M13.258 2.67V1.5C13.258 1.1925 13.003 0.9375 12.6955 0.9375C12.388 0.9375 12.133 1.1925 12.133 1.5V2.625H7.25798V1.5C7.25798 1.1925 7.00298 0.9375 6.69548 0.9375C6.38798 0.9375 6.13298 1.1925 6.13298 1.5V2.67C4.10798 2.8575 3.12548 4.065 2.97548 5.8575C2.96048 6.075 3.14048 6.255 3.35048 6.255H16.0405C16.258 6.255 16.438 6.0675 16.4155 5.8575C16.2655 4.065 15.283 2.8575 13.258 2.67Z" fill="#2C7BF3"/>
<path d="M14.9453 11.25C13.2878 11.25 11.9453 12.5925 11.9453 14.25C11.9453 14.8125 12.1028 15.345 12.3803 15.795C12.8978 16.665 13.8503 17.25 14.9453 17.25C16.0403 17.25 16.9928 16.665 17.5103 15.795C17.7878 15.345 17.9453 14.8125 17.9453 14.25C17.9453 12.5925 16.6028 11.25 14.9453 11.25ZM16.4978 13.9275L14.9003 15.405C14.7953 15.5025 14.6528 15.555 14.5178 15.555C14.3753 15.555 14.2328 15.5025 14.1203 15.39L13.3778 14.6475C13.1603 14.43 13.1603 14.07 13.3778 13.8525C13.5953 13.635 13.9553 13.635 14.1728 13.8525L14.5328 14.2125L15.7328 13.1025C15.9578 12.8925 16.3178 12.9075 16.5278 13.1325C16.7378 13.3575 16.7228 13.71 16.4978 13.9275Z" fill="#2C7BF3"/>
<path d="M15.6953 7.38H3.69531C3.28281 7.38 2.94531 7.7175 2.94531 8.13V12.75C2.94531 15 4.07031 16.5 6.69531 16.5H10.3928C10.9103 16.5 11.2703 15.9975 11.1053 15.51C10.9553 15.075 10.8278 14.595 10.8278 14.25C10.8278 11.9775 12.6803 10.125 14.9528 10.125C15.1703 10.125 15.3878 10.14 15.5978 10.1775C16.0478 10.245 16.4528 9.8925 16.4528 9.4425V8.13751C16.4453 7.71751 16.1078 7.38 15.6953 7.38ZM7.60281 13.6575C7.46031 13.7925 7.26531 13.875 7.07031 13.875C6.87531 13.875 6.68031 13.7925 6.53781 13.6575C6.40281 13.515 6.32031 13.32 6.32031 13.125C6.32031 12.93 6.40281 12.735 6.53781 12.5925C6.61281 12.525 6.68781 12.4725 6.78531 12.435C7.06281 12.315 7.39281 12.3825 7.60281 12.5925C7.73781 12.735 7.82031 12.93 7.82031 13.125C7.82031 13.32 7.73781 13.515 7.60281 13.6575ZM7.60281 11.0325C7.56531 11.0625 7.52781 11.0925 7.49031 11.1225C7.44531 11.1525 7.40031 11.175 7.35531 11.19C7.31031 11.2125 7.26531 11.2275 7.22031 11.235C7.16781 11.2425 7.11531 11.25 7.07031 11.25C6.87531 11.25 6.68031 11.1675 6.53781 11.0325C6.40281 10.89 6.32031 10.695 6.32031 10.5C6.32031 10.305 6.40281 10.11 6.53781 9.9675C6.71031 9.795 6.97281 9.71251 7.22031 9.76501C7.26531 9.77251 7.31031 9.7875 7.35531 9.81C7.40031 9.825 7.44531 9.8475 7.49031 9.8775C7.52781 9.9075 7.56531 9.9375 7.60281 9.9675C7.73781 10.11 7.82031 10.305 7.82031 10.5C7.82031 10.695 7.73781 10.89 7.60281 11.0325ZM10.2278 11.0325C10.0853 11.1675 9.89031 11.25 9.69531 11.25C9.50031 11.25 9.30531 11.1675 9.16281 11.0325C9.02781 10.89 8.94531 10.695 8.94531 10.5C8.94531 10.305 9.02781 10.11 9.16281 9.9675C9.44781 9.69 9.95031 9.69 10.2278 9.9675C10.3628 10.11 10.4453 10.305 10.4453 10.5C10.4453 10.695 10.3628 10.89 10.2278 11.0325Z" fill="#2C7BF3"/>
</g>
<defs>
<clipPath id="clip0_5149_11443">
<rect width="18" height="18" fill="white" transform="translate(0.695312)"/>
</clipPath>
</defs>
</svg>
