<svg width="16" height="16" viewBox="0 0 16 16" fill="none" xmlns="http://www.w3.org/2000/svg">
<mask id="path-1-inside-1_7254_5001" fill="white">
<path d="M5.5 3.8335C5.22667 3.8335 5 3.60683 5 3.3335V1.3335C5 1.06016 5.22667 0.833496 5.5 0.833496C5.77333 0.833496 6 1.06016 6 1.3335V3.3335C6 3.60683 5.77333 3.8335 5.5 3.8335Z"/>
</mask>
<path d="M5.5 3.8335C5.22667 3.8335 5 3.60683 5 3.3335V1.3335C5 1.06016 5.22667 0.833496 5.5 0.833496C5.77333 0.833496 6 1.06016 6 1.3335V3.3335C6 3.60683 5.77333 3.8335 5.5 3.8335Z" fill="#2C7BF3"/>
<path d="M5.5 3.8335V2.3335C6.05509 2.3335 6.5 2.7784 6.5 3.3335H5H3.5C3.5 4.43526 4.39824 5.3335 5.5 5.3335V3.8335ZM5 3.3335H6.5V1.3335H5H3.5V3.3335H5ZM5 1.3335H6.5C6.5 1.88859 6.05509 2.3335 5.5 2.3335V0.833496V-0.666504C4.39824 -0.666504 3.5 0.231736 3.5 1.3335H5ZM5.5 0.833496V2.3335C4.94491 2.3335 4.5 1.88859 4.5 1.3335H6H7.5C7.5 0.231736 6.60176 -0.666504 5.5 -0.666504V0.833496ZM6 1.3335H4.5V3.3335H6H7.5V1.3335H6ZM6 3.3335H4.5C4.5 2.7784 4.94491 2.3335 5.5 2.3335V3.8335V5.3335C6.60176 5.3335 7.5 4.43526 7.5 3.3335H6Z" fill="#2C7BF3" mask="url(#path-1-inside-1_7254_5001)"/>
<mask id="path-3-inside-2_7254_5001" fill="white">
<path d="M10.5 3.8335C10.2267 3.8335 10 3.60683 10 3.3335V1.3335C10 1.06016 10.2267 0.833496 10.5 0.833496C10.7733 0.833496 11 1.06016 11 1.3335V3.3335C11 3.60683 10.7733 3.8335 10.5 3.8335Z"/>
</mask>
<path d="M10.5 3.8335C10.2267 3.8335 10 3.60683 10 3.3335V1.3335C10 1.06016 10.2267 0.833496 10.5 0.833496C10.7733 0.833496 11 1.06016 11 1.3335V3.3335C11 3.60683 10.7733 3.8335 10.5 3.8335Z" fill="#2C7BF3"/>
<path d="M10.5 3.8335V2.3335C11.0551 2.3335 11.5 2.7784 11.5 3.3335H10H8.5C8.5 4.43526 9.39824 5.3335 10.5 5.3335V3.8335ZM10 3.3335H11.5V1.3335H10H8.5V3.3335H10ZM10 1.3335H11.5C11.5 1.88859 11.0551 2.3335 10.5 2.3335V0.833496V-0.666504C9.39824 -0.666504 8.5 0.231736 8.5 1.3335H10ZM10.5 0.833496V2.3335C9.94491 2.3335 9.5 1.88859 9.5 1.3335H11H12.5C12.5 0.231736 11.6018 -0.666504 10.5 -0.666504V0.833496ZM11 1.3335H9.5V3.3335H11H12.5V1.3335H11ZM11 3.3335H9.5C9.5 2.7784 9.94491 2.3335 10.5 2.3335V3.8335V5.3335C11.6018 5.3335 12.5 4.43526 12.5 3.3335H11Z" fill="#2C7BF3" mask="url(#path-3-inside-2_7254_5001)"/>
<path d="M8 9.07568C8.01256 9.07034 8.0322 9.0635 8.05371 9.04541C8.08396 9.01989 8.11172 8.98433 8.12988 8.94385C8.14763 8.90411 8.15039 8.87272 8.15039 8.85986C8.15035 8.84321 8.14632 8.81277 8.12988 8.77588C8.11322 8.73856 8.08871 8.70669 8.06152 8.68311C8.03437 8.65956 8.01204 8.6499 8 8.646M8 9.07568V8.646M8 9.07568C7.98739 9.07024 7.96758 9.06337 7.94629 9.04541C7.91607 9.01989 7.88924 8.98429 7.87109 8.94385C7.86225 8.92407 7.85742 8.90641 7.85449 8.89209L7.85059 8.85986C7.85063 8.84326 7.85379 8.81264 7.87012 8.77588C7.8868 8.73853 7.91225 8.7067 7.93945 8.68311C7.96606 8.66004 7.98781 8.65005 8 8.646M8 9.07568V8.646" fill="#2C7BF3" stroke="#2C7BF3" stroke-width="1.5"/>
<mask id="path-6-inside-3_7254_5001" fill="white">
<path d="M8.00023 11.3333C8.41997 11.3333 8.76023 11.0557 8.76023 10.7133C8.76023 10.3708 8.41997 10.0933 8.00023 10.0933C7.5805 10.0933 7.24023 10.3708 7.24023 10.7133C7.24023 11.0557 7.5805 11.3333 8.00023 11.3333Z"/>
</mask>
<path d="M8.00023 11.3333C8.41997 11.3333 8.76023 11.0557 8.76023 10.7133C8.76023 10.3708 8.41997 10.0933 8.00023 10.0933C7.5805 10.0933 7.24023 10.3708 7.24023 10.7133C7.24023 11.0557 7.5805 11.3333 8.00023 11.3333Z" fill="#2C7BF3"/>
<path d="M8.76023 10.7133H7.26023C7.26023 10.3591 7.44015 10.1112 7.58945 9.98937C7.73569 9.87007 7.88586 9.83326 8.00023 9.83326V11.3333V12.8333C8.94848 12.8333 10.2602 12.1551 10.2602 10.7133H8.76023ZM8.00023 11.3333V9.83326C8.1146 9.83326 8.26478 9.87007 8.41102 9.98937C8.56032 10.1112 8.74023 10.3591 8.74023 10.7133H7.24023H5.74023C5.74023 12.1551 7.05199 12.8333 8.00023 12.8333V11.3333ZM7.24023 10.7133H8.74023C8.74023 11.0675 8.56032 11.3154 8.41102 11.4372C8.26478 11.5565 8.1146 11.5933 8.00023 11.5933V10.0933V8.59326C7.05199 8.59326 5.74023 9.27138 5.74023 10.7133H7.24023ZM8.00023 10.0933V11.5933C7.88587 11.5933 7.73569 11.5565 7.58945 11.4372C7.44015 11.3154 7.26023 11.0675 7.26023 10.7133H8.76023H10.2602C10.2602 9.27138 8.94848 8.59326 8.00023 8.59326V10.0933Z" fill="#2C7BF3" mask="url(#path-6-inside-3_7254_5001)"/>
<path d="M13.046 3.00016C12.606 2.6735 11.9727 2.98683 11.9727 3.54016V3.60683C11.9727 4.38683 11.4127 5.10683 10.6327 5.18683C9.73268 5.28016 8.97268 4.5735 8.97268 3.6935V3.00016C8.97268 2.6335 8.67268 2.3335 8.30602 2.3335H7.69268C7.32602 2.3335 7.02602 2.6335 7.02602 3.00016V3.6935C7.02602 4.22016 6.75268 4.68683 6.33935 4.94683C6.27935 4.98683 6.21268 5.02016 6.14602 5.0535C6.08602 5.08683 6.01935 5.1135 5.94602 5.1335C5.86602 5.16016 5.77935 5.18016 5.68602 5.18683C5.57935 5.20016 5.47268 5.20016 5.36602 5.18683C5.27268 5.18016 5.18602 5.16016 5.10602 5.1335C5.03935 5.1135 4.97268 5.08683 4.90602 5.0535C4.83935 5.02016 4.77268 4.98683 4.71268 4.94683C4.29268 4.6535 4.02602 4.14683 4.02602 3.60683V3.54016C4.02602 3.02683 3.47935 2.72016 3.04602 2.94016C3.03935 2.94683 3.03268 2.94683 3.02602 2.9535C2.99935 2.96683 2.97935 2.98016 2.95268 3.00016C2.93268 3.02016 2.90602 3.0335 2.88602 3.0535C2.69935 3.20016 2.53268 3.36683 2.39268 3.54683C2.31935 3.62683 2.25935 3.7135 2.20602 3.80016C2.19935 3.80683 2.19268 3.8135 2.18602 3.82683C2.12602 3.9135 2.07268 4.0135 2.02602 4.10683C2.01268 4.12016 2.00602 4.12683 2.00602 4.14016C1.96602 4.22016 1.92602 4.30016 1.89935 4.38683C1.87935 4.42016 1.87268 4.44683 1.85935 4.48016C1.81935 4.58016 1.79268 4.68016 1.76602 4.78016C1.73935 4.8735 1.71935 4.9735 1.70602 5.0735C1.69268 5.14683 1.68602 5.22016 1.67935 5.30016C1.67268 5.3935 1.66602 5.48683 1.66602 5.58016V11.4202C1.66602 13.2135 3.11935 14.6668 4.91268 14.6668H11.086C12.8793 14.6668 14.3327 13.2135 14.3327 11.4202V5.58016C14.3327 4.52016 13.826 3.5935 13.046 3.00016ZM7.99935 12.1668C6.96602 12.1668 6.33268 11.6535 6.33268 10.8268C6.33268 10.3735 6.56602 9.98016 6.97268 9.74683C6.67935 9.54016 6.48601 9.2335 6.48601 8.8135C6.48601 7.94683 7.17935 7.50016 7.99935 7.50016C8.81935 7.50016 9.50602 7.94683 9.50602 8.8135C9.50602 9.2335 9.31935 9.54016 9.01935 9.74683C9.43268 9.98016 9.66602 10.3735 9.66602 10.8268C9.66602 11.6535 9.02602 12.1668 7.99935 12.1668Z" fill="#2C7BF3"/>
</svg>
