<svg width="19" height="18" viewBox="0 0 19 18" fill="none" xmlns="http://www.w3.org/2000/svg">
<path d="M17.1728 13.7475C17.1728 14.0175 17.1128 14.295 16.9853 14.565C16.8578 14.835 16.6928 15.09 16.4753 15.33C16.1078 15.735 15.7028 16.0275 15.2453 16.215C14.7953 16.4025 14.3078 16.5 13.7828 16.5C13.0178 16.5 12.2003 16.32 11.3378 15.9525C10.4753 15.585 9.61281 15.09 8.75781 14.4675C7.89531 13.8375 7.07781 13.14 6.29781 12.3675C5.52531 11.5875 4.82781 10.77 4.20531 9.915C3.59031 9.06 3.09531 8.205 2.73531 7.3575C2.37531 6.5025 2.19531 5.685 2.19531 4.905C2.19531 4.395 2.28531 3.9075 2.46531 3.4575C2.64531 3 2.93031 2.58 3.32781 2.205C3.80781 1.7325 4.33281 1.5 4.88781 1.5C5.09781 1.5 5.30781 1.545 5.49531 1.635C5.69031 1.725 5.86281 1.86 5.99781 2.055L7.73781 4.5075C7.87281 4.695 7.97031 4.8675 8.03781 5.0325C8.10531 5.19 8.14281 5.3475 8.14281 5.49C8.14281 5.67 8.09031 5.85 7.98531 6.0225C7.88781 6.195 7.74531 6.375 7.56531 6.555L6.99531 7.1475C6.91281 7.23 6.87531 7.3275 6.87531 7.4475C6.87531 7.5075 6.88281 7.56 6.89781 7.62C6.92031 7.68 6.94281 7.725 6.95781 7.77C7.09281 8.0175 7.32531 8.34 7.65531 8.73C7.99281 9.12 8.35281 9.5175 8.74281 9.915C9.14781 10.3125 9.53781 10.68 9.93531 11.0175C10.3253 11.3475 10.6478 11.5725 10.9028 11.7075C10.9403 11.7225 10.9853 11.745 11.0378 11.7675C11.0978 11.79 11.1578 11.7975 11.2253 11.7975C11.3528 11.7975 11.4503 11.7525 11.5328 11.67L12.1028 11.1075C12.2903 10.92 12.4703 10.7775 12.6428 10.6875C12.8153 10.5825 12.9878 10.53 13.1753 10.53C13.3178 10.53 13.4678 10.56 13.6328 10.6275C13.7978 10.695 13.9703 10.7925 14.1578 10.92L16.6403 12.6825C16.8353 12.8175 16.9703 12.975 17.0528 13.1625C17.1278 13.35 17.1728 13.5375 17.1728 13.7475Z" fill="#2C7BF3"/>
</svg>
