<svg width="19" height="18" viewBox="0 0 19 18" fill="none" xmlns="http://www.w3.org/2000/svg">
<path d="M9.69531 1.5C5.56281 1.5 2.19531 4.8675 2.19531 9C2.19531 13.1325 5.56281 16.5 9.69531 16.5C13.8278 16.5 17.1953 13.1325 17.1953 9C17.1953 4.8675 13.8278 1.5 9.69531 1.5ZM12.9578 11.6775C12.8528 11.8575 12.6653 11.955 12.4703 11.955C12.3728 11.955 12.2753 11.9325 12.1853 11.8725L9.86031 10.485C9.28281 10.14 8.85531 9.3825 8.85531 8.715V5.64C8.85531 5.3325 9.11031 5.0775 9.41781 5.0775C9.72531 5.0775 9.98031 5.3325 9.98031 5.64V8.715C9.98031 8.985 10.2053 9.3825 10.4378 9.5175L12.7628 10.905C13.0328 11.0625 13.1228 11.4075 12.9578 11.6775Z" fill="#2C7BF3"/>
</svg>
