<svg width="19" height="18" viewBox="0 0 19 18" fill="none" xmlns="http://www.w3.org/2000/svg">
<path d="M14.7509 12.9356C14.7509 13.7548 14.0214 14.4923 13.3031 14.7863C11.6465 15.4755 9.75535 14.439 8.43021 13.4756C7.12217 12.5216 5.96473 11.3696 5.01071 10.0613C4.05461 8.73403 3.03853 6.87867 3.70375 5.21813C3.99064 4.49005 4.69359 3.75 5.52335 3.75C6.73256 3.75 8.58201 6.49531 7.5345 7.54125C7.25741 7.82885 6.9351 8.0239 7.07819 8.4525C7.40805 9.05634 7.94115 9.575 8.41895 10.0613C8.91061 10.5431 9.42619 11.0804 10.0414 11.4056C10.4594 11.5726 10.6692 11.2252 10.9427 10.9556C11.8841 10.0156 14.7509 11.6135 14.7509 12.9356Z" stroke="#2C7BF3" stroke-miterlimit="10"/>
<path d="M10.25 6C10.25 4.55025 11.4253 3.375 12.875 3.375V3.375C14.3247 3.375 15.5 4.55025 15.5 6V6C15.5 7.44975 14.3247 8.625 12.875 8.625H10.5C10.3619 8.625 10.25 8.51307 10.25 8.375V6Z" stroke="#2C7BF3"/>
<path d="M12.875 4.875V7.125M11.75 6L14 6" stroke="#2C7BF3" stroke-linecap="round"/>
</svg>
