<svg width="24" height="24" viewBox="0 0 24 24" fill="none" xmlns="http://www.w3.org/2000/svg">
<path fill-rule="evenodd" clip-rule="evenodd" d="M2 12C2 6.20101 6.20101 2 12 2C17.799 2 22 6.20101 22 12C22 17.799 17.799 22 12 22C6.20101 22 2 17.799 2 12ZM16.5 16.5V7.50002C16.5 6.27392 14 6.27394 14 7.50002V10.2C14 10.3657 13.8657 10.5 13.7 10.5L10.3 10.5C10.1343 10.5 10 10.3657 10 10.2L10 7.50002C10 6.27304 7.50001 6.27415 7.50001 7.50002L7.50001 16.5C7.50001 17.6724 10 17.7545 10 16.5V13.8C10 13.6343 10.1343 13.5 10.3 13.5L13.7 13.5C13.8657 13.5 14 13.6343 14 13.8L14 16.5C14 17.7303 16.5 17.7251 16.5 16.5Z" fill="#2C7BF3"/>
</svg>
