<svg width="18" height="18" viewBox="0 0 18 18" fill="none" xmlns="http://www.w3.org/2000/svg">
<path d="M16.125 9C16.125 13.1421 13.1421 16.125 9 16.125C4.85786 16.125 1.875 13.1421 1.875 9C1.875 4.85786 4.85786 1.875 9 1.875C13.1421 1.875 16.125 4.85786 16.125 9Z" stroke="#2C7BF3"/>
<path d="M12.375 5.62504V12.375C12.375 13.2939 10.5 13.2978 10.5 12.375L10.5 10.425C10.5 10.2594 10.3657 10.125 10.2 10.125L7.80002 10.125C7.63433 10.125 7.50002 10.2594 7.50002 10.425V12.375C7.50002 13.3159 5.62501 13.2543 5.62501 12.375L5.62501 5.62504C5.62501 4.70564 7.50001 4.70481 7.50001 5.62504L7.5 7.57504C7.5 7.74073 7.63432 7.87505 7.8 7.87505L10.2 7.87505C10.3657 7.87505 10.5 7.74073 10.5 7.57505V5.62504C10.5 4.70549 12.375 4.70547 12.375 5.62504Z" stroke="#2C7BF3"/>
</svg>
