<svg width="45" height="57" viewBox="0 0 45 57" fill="none" xmlns="http://www.w3.org/2000/svg">
<g opacity="0.2">
<path d="M40.6234 6.54967L22.3872 0.000732422L4.32769 6.46135C2.02253 7.55014 0 8.20224 0 10.3499V21.0435C0 28.4698 1.94599 35.8288 5.94885 42.3257C9.31729 47.7927 14.5336 53.4222 22.5643 57.0001C29.9464 54.6022 35.4561 48.2098 38.8251 42.7428C42.8284 36.2459 44.7739 28.8868 44.7739 21.4606V11.8445C44.7739 8.78172 43.1508 7.28616 40.6234 6.54967Z" fill="#EBEBEB"/>
<path d="M22.5643 50.7939C16.2112 47.9632 12.0842 43.4143 9.41885 39.089C6.2516 33.9488 4.71188 28.1265 4.71188 22.2513V14.75C4.71188 13.0508 5.73688 11.4591 7.77217 10.5091L22.3901 5.04308L22.3867 0L4.32769 6.46111C2.43224 7.28936 0 8.202 0 10.3497V21.0433C0 28.4695 1.94599 35.8285 5.94885 42.3255C9.31729 47.7925 14.5336 53.4219 22.5643 56.9999V50.7939Z" fill="#E0E0E0"/>
<path d="M22.5658 56.9994C23.845 56.571 25.0201 56.0774 26.1487 55.4631C29.1761 53.814 31.759 51.549 33.73 49.499C35.935 47.2061 37.5778 44.7278 39.0037 42.4133C43.007 35.9164 44.9525 28.5573 44.7754 20.9265L44.7867 12.0979C44.7754 7.70152 42.5208 7.37768 40.6253 6.54943L22.3887 0.000488281L22.3921 5.04357L37.1808 10.5974C39.2161 11.5474 40.2411 13.1391 40.2411 14.8383V22.3396C40.2411 28.2149 38.7019 34.0371 35.5346 39.1774C32.8693 43.5031 28.9195 47.9632 22.5663 50.7939L22.5658 56.9994Z" fill="#E0E0E0"/>
<path d="M24.2885 17.2603H20.4844V34.308H24.2885V17.2603Z" fill="white"/>
<path d="M13.8633 23.8821V27.6863H30.911V23.8821H13.8633Z" fill="white"/>
</g>
</svg>
