<svg width="18" height="20" viewBox="0 0 18 20" fill="none" xmlns="http://www.w3.org/2000/svg">
<path fill-rule="evenodd" clip-rule="evenodd" d="M8.99976 12C11.2089 12 12.9998 10.2092 12.9998 8.00003C12.9998 5.79089 11.2089 4.00003 8.99976 4.00003C6.79062 4.00003 4.99976 5.79089 4.99976 8.00003C4.99976 10.2092 6.79062 12 8.99976 12ZM8.06226 6.43753C8.06226 6.14632 8.06226 6.00071 8.10983 5.88585C8.17326 5.73271 8.29494 5.61104 8.44808 5.54761C8.56294 5.50003 8.70854 5.50003 8.99976 5.50003C9.29097 5.50003 9.43658 5.50003 9.55143 5.54761C9.70458 5.61104 9.82625 5.73271 9.88968 5.88585C9.93726 6.00071 9.93726 6.14632 9.93726 6.43753V7.03253C9.93726 7.04667 9.93726 7.05374 9.94165 7.05814C9.94604 7.06253 9.95311 7.06253 9.96726 7.06253H10.5623C10.8535 7.06253 10.9991 7.06253 11.1139 7.11011C11.2671 7.17354 11.3887 7.29521 11.4522 7.44835C11.4998 7.56321 11.4998 7.70882 11.4998 8.00003C11.4998 8.29124 11.4998 8.43685 11.4522 8.55171C11.3887 8.70485 11.2671 8.82652 11.1139 8.88996C10.9991 8.93753 10.8535 8.93753 10.5623 8.93753H9.96726C9.95311 8.93753 9.94604 8.93753 9.94165 8.94192C9.93726 8.94632 9.93726 8.95339 9.93726 8.96753V9.56253C9.93726 9.85374 9.93726 9.99935 9.88968 10.1142C9.82625 10.2674 9.70458 10.389 9.55143 10.4525C9.43658 10.5 9.29097 10.5 8.99976 10.5C8.70854 10.5 8.56294 10.5 8.44808 10.4525C8.29494 10.389 8.17326 10.2674 8.10983 10.1142C8.06226 9.99935 8.06226 9.85374 8.06226 9.56253V8.96753C8.06226 8.95339 8.06226 8.94632 8.05786 8.94192C8.05347 8.93753 8.0464 8.93753 8.03226 8.93753H7.43726C7.14604 8.93753 7.00044 8.93753 6.88558 8.88996C6.73244 8.82652 6.61076 8.70485 6.54733 8.55171C6.49976 8.43685 6.49976 8.29124 6.49976 8.00003C6.49976 7.70882 6.49976 7.56321 6.54733 7.44835C6.61076 7.29521 6.73244 7.17354 6.88558 7.11011C7.00044 7.06253 7.14604 7.06253 7.43726 7.06253H8.03226C8.0464 7.06253 8.05347 7.06253 8.05786 7.05814C8.06226 7.05374 8.06226 7.04667 8.06226 7.03253V6.43753Z" fill="#2C7BF3"/>
<path fill-rule="evenodd" clip-rule="evenodd" d="M1.01294 6.38591C2.96098 -1.92322 15.0477 -1.92603 16.9867 6.38646C17.2684 7.59381 17.0892 9.04651 16.6569 10.5065C16.2216 11.9764 15.5145 13.5043 14.6835 14.8871C13.8531 16.2688 12.8877 17.5245 11.9247 18.4419C11.4432 18.9006 10.9525 19.2841 10.47 19.5555C9.99114 19.8248 9.49094 20 8.99975 20C8.5086 20 8.00842 19.8249 7.52953 19.5557C7.04703 19.2845 6.55628 18.901 6.07475 18.4425C5.11169 17.5254 4.14613 16.27 3.31571 14.8885C2.48462 13.506 1.77752 11.9782 1.34225 10.508C0.909927 9.04778 0.731056 7.59412 1.01294 6.38591ZM8.99976 13C11.7612 13 13.9998 10.7615 13.9998 8.00003C13.9998 5.23861 11.7612 3.00003 8.99976 3.00003C6.23833 3.00003 3.99976 5.23861 3.99976 8.00003C3.99976 10.7615 6.23833 13 8.99976 13Z" fill="#2C7BF3"/>
</svg>
