<svg width="18" height="18" viewBox="0 0 18 18" fill="none" xmlns="http://www.w3.org/2000/svg">
<path d="M16.125 9C16.125 13.1421 13.1421 16.125 9 16.125C4.85786 16.125 1.875 13.1421 1.875 9C1.875 4.85786 4.85786 1.875 9 1.875C13.1421 1.875 16.125 4.85786 16.125 9Z" stroke="#2C7BF3"/>
<path d="M7.66511 5.82873C7.59375 6.00102 7.59375 6.21943 7.59375 6.65625V7.53375C7.59375 7.56203 7.59375 7.57618 7.58496 7.58496C7.57618 7.59375 7.56203 7.59375 7.53375 7.59375H6.65625C6.21943 7.59375 6.00102 7.59375 5.82873 7.66511C5.59902 7.76026 5.41651 7.94277 5.32136 8.17248C5.25 8.34477 5.25 8.56318 5.25 9C5.25 9.43682 5.25 9.65523 5.32136 9.82752C5.41651 10.0572 5.59902 10.2397 5.82873 10.3349C6.00102 10.4062 6.21943 10.4062 6.65625 10.4062H7.53375C7.56203 10.4062 7.57618 10.4062 7.58496 10.415C7.59375 10.4238 7.59375 10.438 7.59375 10.4663V11.3438C7.59375 11.7806 7.59375 11.999 7.66511 12.1713C7.76026 12.401 7.94277 12.5835 8.17248 12.6786C8.34477 12.75 8.56318 12.75 9 12.75C9.43682 12.75 9.65523 12.75 9.82752 12.6786C10.0572 12.5835 10.2397 12.401 10.3349 12.1713C10.4062 11.999 10.4062 11.7806 10.4062 11.3438V10.4662C10.4062 10.438 10.4062 10.4238 10.415 10.415C10.4238 10.4062 10.438 10.4062 10.4663 10.4062H11.3438C11.7806 10.4062 11.999 10.4062 12.1713 10.3349C12.401 10.2397 12.5835 10.0572 12.6786 9.82752C12.75 9.65523 12.75 9.43682 12.75 9C12.75 8.56318 12.75 8.34477 12.6786 8.17248C12.5835 7.94277 12.401 7.76026 12.1713 7.66511C11.999 7.59375 11.7806 7.59375 11.3438 7.59375H10.4662C10.438 7.59375 10.4238 7.59375 10.415 7.58496C10.4062 7.57618 10.4062 7.56203 10.4062 7.53375V6.65625C10.4062 6.21943 10.4062 6.00102 10.3349 5.82873C10.2397 5.59902 10.0572 5.41651 9.82752 5.32136C9.65523 5.25 9.43682 5.25 9 5.25C8.56318 5.25 8.34477 5.25 8.17248 5.32136C7.94277 5.41651 7.76026 5.59902 7.66511 5.82873Z" stroke="#2C7BF3"/>
</svg>
