<svg width="16" height="16" viewBox="0 0 16 16" fill="none" xmlns="http://www.w3.org/2000/svg">
<path d="M14.3327 8.00008C14.3327 11.682 11.6812 14.3334 7.99935 14.3334C4.31745 14.3334 1.66602 11.682 1.66602 8.00008C1.66602 4.31818 4.31745 1.66675 7.99935 1.66675C11.6812 1.66675 14.3327 4.31818 14.3327 8.00008Z" stroke="#4CAF50"/>
<path d="M6.81278 5.18118C6.74935 5.33432 6.74935 5.52846 6.74935 5.91675V6.69008C6.74935 6.71837 6.74935 6.73251 6.74056 6.74129C6.73178 6.75008 6.71763 6.75008 6.68935 6.75008H5.91602C5.52773 6.75008 5.33359 6.75008 5.18045 6.81351C4.97626 6.89809 4.81403 7.06032 4.72945 7.26451C4.66602 7.41765 4.66602 7.6118 4.66602 8.00008C4.66602 8.38837 4.66602 8.58251 4.72945 8.73565C4.81403 8.93984 4.97626 9.10207 5.18045 9.18665C5.33359 9.25008 5.52773 9.25008 5.91602 9.25008H6.68935C6.71763 9.25008 6.73178 9.25008 6.74056 9.25887C6.74935 9.26765 6.74935 9.2818 6.74935 9.31008V10.0834C6.74935 10.4717 6.74935 10.6658 6.81278 10.819C6.89736 11.0232 7.05959 11.1854 7.26378 11.27C7.41692 11.3334 7.61106 11.3334 7.99935 11.3334C8.38763 11.3334 8.58178 11.3334 8.73492 11.27C8.93911 11.1854 9.10134 11.0232 9.18592 10.819C9.24935 10.6658 9.24935 10.4717 9.24935 10.0834V9.31008C9.24935 9.2818 9.24935 9.26765 9.25814 9.25887C9.26692 9.25008 9.28106 9.25008 9.30935 9.25008H10.0827C10.471 9.25008 10.6651 9.25008 10.8183 9.18665C11.0224 9.10207 11.1847 8.93984 11.2692 8.73565C11.3327 8.58251 11.3327 8.38837 11.3327 8.00008C11.3327 7.6118 11.3327 7.41765 11.2692 7.26451C11.1847 7.06032 11.0224 6.89809 10.8183 6.81352C10.6651 6.75008 10.471 6.75008 10.0827 6.75008H9.30935C9.28106 6.75008 9.26692 6.75008 9.25814 6.74129C9.24935 6.73251 9.24935 6.71837 9.24935 6.69008V5.91675C9.24935 5.52846 9.24935 5.33432 9.18592 5.18118C9.10134 4.97699 8.93911 4.81476 8.73492 4.73018C8.58178 4.66675 8.38763 4.66675 7.99935 4.66675C7.61106 4.66675 7.41692 4.66675 7.26378 4.73018C7.05959 4.81476 6.89736 4.97699 6.81278 5.18118Z" stroke="#4CAF50"/>
</svg>
