<svg width="18" height="18" viewBox="0 0 18 18" fill="none" xmlns="http://www.w3.org/2000/svg">
<mask id="path-1-inside-1_5016_8300" fill="white">
<path d="M13.403 16.4025C13.1705 16.4025 12.938 16.3425 12.728 16.215L9.72055 14.43C9.40555 14.4225 9.09055 14.4 8.79055 14.355C8.58805 14.325 8.41554 14.19 8.34054 13.995C8.26554 13.8 8.30305 13.59 8.43805 13.4325C8.93305 12.855 9.18805 12.165 9.18805 11.43C9.18805 9.61499 7.59055 8.13748 5.62555 8.13748C4.89055 8.13748 4.18554 8.34001 3.59304 8.73001C3.42804 8.83501 3.22554 8.85 3.04554 8.7675C2.87304 8.685 2.74555 8.51998 2.72305 8.32498C2.70055 8.11498 2.68555 7.905 2.68555 7.6875C2.68555 3.9675 5.91055 0.945007 9.87055 0.945007C13.8305 0.945007 17.0555 3.9675 17.0555 7.6875C17.0555 9.7275 16.1105 11.6025 14.4455 12.885L14.7006 14.925C14.7606 15.435 14.5355 15.915 14.108 16.1925C13.898 16.3275 13.6505 16.4025 13.403 16.4025ZM9.86304 13.2975C9.96804 13.29 10.073 13.32 10.163 13.38L13.3055 15.2475C13.3881 15.3 13.4555 15.2775 13.5005 15.2475C13.538 15.225 13.598 15.165 13.583 15.06L13.2905 12.69C13.268 12.48 13.358 12.2775 13.523 12.1575C15.053 11.085 15.9305 9.44999 15.9305 7.67249C15.9305 4.57499 13.2155 2.05499 9.87055 2.05499C6.65305 2.05499 4.01304 4.39502 3.81804 7.33502C4.38054 7.11752 4.98805 6.99751 5.61805 6.99751C8.20555 6.99751 10.3055 8.97748 10.3055 11.415C10.313 12.075 10.1555 12.7125 9.86304 13.2975Z"/>
</mask>
<path d="M13.403 16.4025C13.1705 16.4025 12.938 16.3425 12.728 16.215L9.72055 14.43C9.40555 14.4225 9.09055 14.4 8.79055 14.355C8.58805 14.325 8.41554 14.19 8.34054 13.995C8.26554 13.8 8.30305 13.59 8.43805 13.4325C8.93305 12.855 9.18805 12.165 9.18805 11.43C9.18805 9.61499 7.59055 8.13748 5.62555 8.13748C4.89055 8.13748 4.18554 8.34001 3.59304 8.73001C3.42804 8.83501 3.22554 8.85 3.04554 8.7675C2.87304 8.685 2.74555 8.51998 2.72305 8.32498C2.70055 8.11498 2.68555 7.905 2.68555 7.6875C2.68555 3.9675 5.91055 0.945007 9.87055 0.945007C13.8305 0.945007 17.0555 3.9675 17.0555 7.6875C17.0555 9.7275 16.1105 11.6025 14.4455 12.885L14.7006 14.925C14.7606 15.435 14.5355 15.915 14.108 16.1925C13.898 16.3275 13.6505 16.4025 13.403 16.4025ZM9.86304 13.2975C9.96804 13.29 10.073 13.32 10.163 13.38L13.3055 15.2475C13.3881 15.3 13.4555 15.2775 13.5005 15.2475C13.538 15.225 13.598 15.165 13.583 15.06L13.2905 12.69C13.268 12.48 13.358 12.2775 13.523 12.1575C15.053 11.085 15.9305 9.44999 15.9305 7.67249C15.9305 4.57499 13.2155 2.05499 9.87055 2.05499C6.65305 2.05499 4.01304 4.39502 3.81804 7.33502C4.38054 7.11752 4.98805 6.99751 5.61805 6.99751C8.20555 6.99751 10.3055 8.97748 10.3055 11.415C10.313 12.075 10.1555 12.7125 9.86304 13.2975Z" fill="#171717"/>
<path d="M12.728 16.215L13.5065 14.9328L13.5001 14.9289L13.4936 14.9251L12.728 16.215ZM9.72055 14.43L10.4861 13.1401L10.1486 12.9398L9.75625 12.9304L9.72055 14.43ZM8.79055 14.355L9.01306 12.8716L9.01037 12.8712L8.79055 14.355ZM8.43805 13.4325L9.57693 14.4087L8.43805 13.4325ZM3.59304 8.73001L4.39835 9.9955L4.4081 9.9893L4.41776 9.98294L3.59304 8.73001ZM3.04554 8.7675L2.39836 10.1207L2.40942 10.126L2.42056 10.1311L3.04554 8.7675ZM2.72305 8.32498L1.23154 8.48479L1.23294 8.49692L2.72305 8.32498ZM14.4455 12.885L13.5302 11.6967L12.8507 12.22L12.9571 13.0711L14.4455 12.885ZM14.7006 14.925L16.1903 14.7498L16.189 14.739L14.7006 14.925ZM14.108 16.1925L14.9192 17.4543L14.9248 17.4507L14.108 16.1925ZM9.86304 13.2975L8.5214 12.6267L7.34412 14.9812L9.96991 14.7937L9.86304 13.2975ZM10.163 13.38L9.331 14.6281L9.36333 14.6497L9.39674 14.6695L10.163 13.38ZM13.3055 15.2475L14.1109 13.982L14.0915 13.9697L14.0719 13.958L13.3055 15.2475ZM13.5005 15.2475L12.7288 13.9613L12.6982 13.9796L12.6685 13.9994L13.5005 15.2475ZM13.583 15.06L12.0943 15.2437L12.0961 15.258L12.0981 15.2721L13.583 15.06ZM13.2905 12.69L11.7991 12.8498L11.8004 12.8618L11.8018 12.8737L13.2905 12.69ZM13.523 12.1575L12.662 10.9292L12.6513 10.9367L12.6408 10.9444L13.523 12.1575ZM3.81804 7.33502L2.32133 7.23575L2.1657 9.58216L4.35901 8.73408L3.81804 7.33502ZM10.3055 11.415H8.80555V11.4235L8.80565 11.432L10.3055 11.415ZM13.403 16.4025V14.9025C13.4313 14.9025 13.4703 14.9108 13.5065 14.9328L12.728 16.215L11.9496 17.4972C12.4058 17.7742 12.9098 17.9025 13.403 17.9025V16.4025ZM12.728 16.215L13.4936 14.9251L10.4861 13.1401L9.72055 14.43L8.95496 15.7199L11.9625 17.5049L12.728 16.215ZM9.72055 14.43L9.75625 12.9304C9.48624 12.924 9.23596 12.905 9.01306 12.8716L8.79055 14.355L8.56804 15.8384C8.94513 15.895 9.32486 15.921 9.68485 15.9296L9.72055 14.43ZM8.79055 14.355L9.01037 12.8712C9.3349 12.9193 9.61848 13.1391 9.74056 13.4565L8.34054 13.995L6.94052 14.5334C7.2126 15.2408 7.8412 15.7307 8.57072 15.8388L8.79055 14.355ZM8.34054 13.995L9.74056 13.4565C9.86536 13.781 9.7972 14.1517 9.57693 14.4087L8.43805 13.4325L7.29916 12.4563C6.80889 13.0283 6.66572 13.819 6.94052 14.5334L8.34054 13.995ZM8.43805 13.4325L9.57693 14.4087C10.3009 13.5641 10.688 12.5293 10.688 11.43H9.18805H7.68805C7.68805 11.8007 7.56522 12.1459 7.29916 12.4563L8.43805 13.4325ZM9.18805 11.43H10.688C10.688 8.67775 8.3058 6.63748 5.62555 6.63748V8.13748V9.63748C6.87529 9.63748 7.68805 10.5522 7.68805 11.43H9.18805ZM5.62555 8.13748V6.63748C4.61522 6.63748 3.62015 6.91638 2.76832 7.47708L3.59304 8.73001L4.41776 9.98294C4.75093 9.76364 5.16587 9.63748 5.62555 9.63748V8.13748ZM3.59304 8.73001L2.78773 7.46452C3.04934 7.29804 3.38513 7.2731 3.67053 7.4039L3.04554 8.7675L2.42056 10.1311C3.06596 10.4269 3.80674 10.372 4.39835 9.9955L3.59304 8.73001ZM3.04554 8.7675L3.69273 7.4143C3.94853 7.53664 4.17196 7.79595 4.21316 8.15305L2.72305 8.32498L1.23294 8.49692C1.31914 9.24401 1.79755 9.83336 2.39836 10.1207L3.04554 8.7675ZM2.72305 8.32498L4.21451 8.16518C4.19574 7.98997 4.18555 7.83594 4.18555 7.6875H2.68555H1.18555C1.18555 7.97406 1.20536 8.24 1.23159 8.48478L2.72305 8.32498ZM2.68555 7.6875H4.18555C4.18555 4.88486 6.64715 2.44501 9.87055 2.44501V0.945007V-0.554993C5.17395 -0.554993 1.18555 3.05014 1.18555 7.6875H2.68555ZM9.87055 0.945007V2.44501C13.0939 2.44501 15.5555 4.88486 15.5555 7.6875H17.0555H18.5555C18.5555 3.05014 14.5671 -0.554993 9.87055 -0.554993V0.945007ZM17.0555 7.6875H15.5555C15.5555 9.24326 14.8417 10.6864 13.5302 11.6967L14.4455 12.885L15.3609 14.0733C17.3793 12.5186 18.5555 10.2117 18.5555 7.6875H17.0555ZM14.4455 12.885L12.9571 13.0711L13.2121 15.1111L14.7006 14.925L16.189 14.739L15.934 12.6989L14.4455 12.885ZM14.7006 14.925L13.2108 15.1003C13.2087 15.0819 13.2107 15.0482 13.2284 15.0103C13.2462 14.9725 13.2718 14.947 13.2913 14.9344L14.108 16.1925L14.9248 17.4507C15.8338 16.8606 16.3166 15.8234 16.1903 14.7498L14.7006 14.925ZM14.108 16.1925L13.2969 14.9308C13.3105 14.922 13.3245 14.9156 13.3397 14.9111C13.3549 14.9065 13.3758 14.9025 13.403 14.9025V16.4025V17.9025C13.9485 17.9025 14.4761 17.7391 14.9192 17.4543L14.108 16.1925ZM9.86304 13.2975L9.96991 14.7937C9.7167 14.8118 9.49496 14.7374 9.331 14.6281L10.163 13.38L10.9951 12.1319C10.6511 11.9026 10.2194 11.7682 9.75617 11.8013L9.86304 13.2975ZM10.163 13.38L9.39674 14.6695L12.5392 16.537L13.3055 15.2475L14.0719 13.958L10.9294 12.0905L10.163 13.38ZM13.3055 15.2475L12.5002 16.513C12.7978 16.7023 13.1603 16.806 13.5452 16.773C13.9045 16.7422 14.1728 16.6021 14.3326 16.4956L13.5005 15.2475L12.6685 13.9994C12.7833 13.9229 12.9953 13.8091 13.289 13.7839C13.6083 13.7566 13.8958 13.8452 14.1109 13.982L13.3055 15.2475ZM13.5005 15.2475L14.2723 16.5338C14.6571 16.3029 15.1933 15.725 15.068 14.8479L13.583 15.06L12.0981 15.2721C12.0567 14.9824 12.1174 14.6867 12.2616 14.4362C12.3911 14.2113 12.5656 14.0592 12.7288 13.9613L13.5005 15.2475ZM13.583 15.06L15.0718 14.8763L14.7793 12.5063L13.2905 12.69L11.8018 12.8737L12.0943 15.2437L13.583 15.06ZM13.2905 12.69L14.782 12.5302C14.8157 12.8443 14.6821 13.1693 14.4053 13.3706L13.523 12.1575L12.6408 10.9444C12.034 11.3857 11.7204 12.1156 11.7991 12.8498L13.2905 12.69ZM13.523 12.1575L14.384 13.3858C16.2904 12.0495 17.4305 9.96786 17.4305 7.67249H15.9305H14.4305C14.4305 8.93211 13.8157 10.1206 12.662 10.9292L13.523 12.1575ZM15.9305 7.67249H17.4305C17.4305 3.64202 13.9354 0.554993 9.87055 0.554993V2.05499V3.55499C12.4957 3.55499 14.4305 5.50795 14.4305 7.67249H15.9305ZM9.87055 2.05499V0.554993C5.95381 0.554993 2.5744 3.42023 2.32133 7.23575L3.81804 7.33502L5.31475 7.43429C5.45168 5.36982 7.35229 3.55499 9.87055 3.55499V2.05499ZM3.81804 7.33502L4.35901 8.73408C4.75531 8.58084 5.17975 8.49751 5.61805 8.49751V6.99751V5.49751C4.79635 5.49751 4.00578 5.6542 3.27707 5.93597L3.81804 7.33502ZM5.61805 6.99751V8.49751C7.462 8.49751 8.80555 9.88831 8.80555 11.415H10.3055H11.8055C11.8055 8.06665 8.9491 5.49751 5.61805 5.49751V6.99751ZM10.3055 11.415L8.80565 11.432C8.81026 11.838 8.71429 12.2409 8.5214 12.6267L9.86304 13.2975L11.2047 13.9683C11.5968 13.1841 11.8158 12.312 11.8055 11.3979L10.3055 11.415Z" fill="#2C7BF3" mask="url(#path-1-inside-1_5016_8300)"/>
<mask id="path-3-inside-2_5016_8300" fill="white">
<path d="M3.43532 17.0625C3.24032 17.0625 3.05281 17.0101 2.88031 16.8976C2.54281 16.6801 2.36282 16.3051 2.40782 15.9076L2.55782 14.7525C1.54532 13.9275 0.945312 12.705 0.945312 11.4225C0.945312 9.96003 1.71032 8.59504 2.99282 7.77754C3.76532 7.27504 4.68031 7.00507 5.63281 7.00507C8.22031 7.00507 10.3203 8.98503 10.3203 11.4225C10.3203 12.4125 9.96031 13.3875 9.30031 14.16C8.45281 15.1875 7.18532 15.7875 5.79032 15.8325L3.96032 16.92C3.79532 17.0175 3.61532 17.0625 3.43532 17.0625ZM5.62532 8.13007C4.89032 8.13007 4.18531 8.33255 3.59281 8.72255C2.63281 9.33755 2.06282 10.3425 2.06282 11.4225C2.06282 12.465 2.57282 13.4176 3.47282 14.0326C3.64532 14.1526 3.73531 14.355 3.71281 14.565L3.54781 15.8475L5.34031 14.7826C5.43031 14.7301 5.52782 14.7 5.62532 14.7C6.72782 14.7 7.77032 14.2276 8.43032 13.4251C8.92532 12.8401 9.18782 12.15 9.18782 11.415C9.18782 9.60752 7.59032 8.13007 5.62532 8.13007Z"/>
</mask>
<path d="M3.43532 17.0625C3.24032 17.0625 3.05281 17.0101 2.88031 16.8976C2.54281 16.6801 2.36282 16.3051 2.40782 15.9076L2.55782 14.7525C1.54532 13.9275 0.945312 12.705 0.945312 11.4225C0.945312 9.96003 1.71032 8.59504 2.99282 7.77754C3.76532 7.27504 4.68031 7.00507 5.63281 7.00507C8.22031 7.00507 10.3203 8.98503 10.3203 11.4225C10.3203 12.4125 9.96031 13.3875 9.30031 14.16C8.45281 15.1875 7.18532 15.7875 5.79032 15.8325L3.96032 16.92C3.79532 17.0175 3.61532 17.0625 3.43532 17.0625ZM5.62532 8.13007C4.89032 8.13007 4.18531 8.33255 3.59281 8.72255C2.63281 9.33755 2.06282 10.3425 2.06282 11.4225C2.06282 12.465 2.57282 13.4176 3.47282 14.0326C3.64532 14.1526 3.73531 14.355 3.71281 14.565L3.54781 15.8475L5.34031 14.7826C5.43031 14.7301 5.52782 14.7 5.62532 14.7C6.72782 14.7 7.77032 14.2276 8.43032 13.4251C8.92532 12.8401 9.18782 12.15 9.18782 11.415C9.18782 9.60752 7.59032 8.13007 5.62532 8.13007Z" fill="#171717"/>
<path d="M2.88031 16.8976L3.69973 15.6411L3.69287 15.6367L2.88031 16.8976ZM2.40782 15.9076L0.920313 15.7144L0.918727 15.7266L0.917342 15.7388L2.40782 15.9076ZM2.55782 14.7525L4.04533 14.9457L4.1529 14.1173L3.50533 13.5897L2.55782 14.7525ZM2.99282 7.77754L3.79913 9.04248L3.81073 9.03493L2.99282 7.77754ZM9.30031 14.16L8.15987 13.1857L8.15142 13.1956L8.14315 13.2056L9.30031 14.16ZM5.79032 15.8325L5.74196 14.3333L5.35599 14.3458L5.02402 14.543L5.79032 15.8325ZM3.96032 16.92L4.72341 18.2114L4.72662 18.2095L3.96032 16.92ZM3.59281 8.72255L4.40195 9.9856L4.40977 9.98059L4.41753 9.97548L3.59281 8.72255ZM3.47282 14.0326L4.32945 12.8012L4.31911 12.7941L3.47282 14.0326ZM3.71281 14.565L5.20055 14.7564L5.20258 14.7407L5.20428 14.7248L3.71281 14.565ZM3.54781 15.8475L2.06008 15.6561L1.66723 18.7096L4.31399 17.1371L3.54781 15.8475ZM5.34031 14.7826L4.58448 13.4869L4.57414 13.493L5.34031 14.7826ZM8.43032 13.4251L7.28524 12.4562L7.27846 12.4642L7.2718 12.4723L8.43032 13.4251ZM9.18782 11.415H7.68782H9.18782ZM3.43532 17.0625V15.5625C3.47366 15.5625 3.52043 15.5679 3.57097 15.5827C3.62183 15.5976 3.66552 15.6189 3.69972 15.6412L2.88031 16.8976L2.06091 18.154C2.48417 18.43 2.95785 18.5625 3.43532 18.5625V17.0625ZM2.88031 16.8976L3.69287 15.6367C3.75431 15.6763 3.81387 15.7393 3.85397 15.8232C3.89423 15.9074 3.90728 15.997 3.8983 16.0763L2.40782 15.9076L0.917342 15.7388C0.807375 16.7102 1.25704 17.636 2.06776 18.1584L2.88031 16.8976ZM2.40782 15.9076L3.89533 16.1007L4.04533 14.9457L2.55782 14.7525L1.07031 14.5594L0.920313 15.7144L2.40782 15.9076ZM2.55782 14.7525L3.50533 13.5897C2.82711 13.0371 2.44531 12.2347 2.44531 11.4225H0.945312H-0.554688C-0.554688 13.1754 0.263526 14.818 1.61031 15.9154L2.55782 14.7525ZM0.945312 11.4225H2.44531C2.44531 10.4948 2.92953 9.59671 3.79909 9.04242L2.99282 7.77754L2.18655 6.51266C0.491112 7.59338 -0.554688 9.42524 -0.554688 11.4225H0.945312ZM2.99282 7.77754L3.81073 9.03493C4.3344 8.69429 4.96415 8.50507 5.63281 8.50507V7.00507V5.50507C4.39648 5.50507 3.19624 5.8558 2.17491 6.52016L2.99282 7.77754ZM5.63281 7.00507V8.50507C7.47676 8.50507 8.82031 9.89586 8.82031 11.4225H10.3203H11.8203C11.8203 8.0742 8.96386 5.50507 5.63281 5.50507V7.00507ZM10.3203 11.4225H8.82031C8.82031 12.0502 8.59111 12.6809 8.15987 13.1857L9.30031 14.16L10.4408 15.1344C11.3295 14.0942 11.8203 12.7748 11.8203 11.4225H10.3203ZM9.30031 14.16L8.14315 13.2056C7.58731 13.8795 6.73448 14.3013 5.74196 14.3333L5.79032 15.8325L5.83868 17.3318C7.63615 17.2738 9.31831 16.4956 10.4575 15.1145L9.30031 14.16ZM5.79032 15.8325L5.02402 14.543L3.19402 15.6306L3.96032 16.92L4.72662 18.2095L6.55662 17.122L5.79032 15.8325ZM3.96032 16.92L3.19722 15.6287C3.27551 15.5824 3.36137 15.5625 3.43532 15.5625V17.0625V18.5625C3.86926 18.5625 4.31512 18.4527 4.72341 18.2114L3.96032 16.92ZM5.62532 8.13007V6.63007C4.61505 6.63007 3.61997 6.90889 2.7681 7.46962L3.59281 8.72255L4.41753 9.97548C4.75065 9.75621 5.16558 9.63007 5.62532 9.63007V8.13007ZM3.59281 8.72255L2.78367 7.4595C1.42264 8.33141 0.562817 9.79727 0.562817 11.4225H2.06282H3.56282C3.56282 10.8878 3.84298 10.3437 4.40195 9.9856L3.59281 8.72255ZM2.06282 11.4225H0.562817C0.562817 12.9799 1.33373 14.3876 2.62653 15.271L3.47282 14.0326L4.31911 12.7941C3.81191 12.4475 3.56282 11.9502 3.56282 11.4225H2.06282ZM3.47282 14.0326L2.61622 15.2639C2.32728 15.0629 2.18699 14.7259 2.22135 14.4052L3.71281 14.565L5.20428 14.7248C5.28364 13.9842 4.96336 13.2422 4.32942 12.8012L3.47282 14.0326ZM3.71281 14.565L2.22508 14.3736L2.06008 15.6561L3.54781 15.8475L5.03555 16.039L5.20055 14.7564L3.71281 14.565ZM3.54781 15.8475L4.31399 17.1371L6.10649 16.0721L5.34031 14.7826L4.57414 13.493L2.78164 14.558L3.54781 15.8475ZM5.34031 14.7826L6.09612 16.0782C5.99803 16.1355 5.83746 16.2 5.62532 16.2V14.7V13.2C5.21818 13.2 4.8626 13.3247 4.58451 13.4869L5.34031 14.7826ZM5.62532 14.7V16.2C7.1428 16.2 8.62324 15.5519 9.58884 14.3779L8.43032 13.4251L7.2718 12.4723C6.9174 12.9032 6.31283 13.2 5.62532 13.2V14.7ZM8.43032 13.4251L9.5754 14.394C10.2855 13.5547 10.6878 12.5259 10.6878 11.415H9.18782H7.68782C7.68782 11.7741 7.56511 12.1254 7.28524 12.4562L8.43032 13.4251ZM9.18782 11.415H10.6878C10.6878 8.66812 8.30323 6.63007 5.62532 6.63007V8.13007V9.63007C6.8774 9.63007 7.68782 10.5469 7.68782 11.415H9.18782Z" fill="#2C7BF3" mask="url(#path-3-inside-2_5016_8300)"/>
</svg>
