<svg width="32" height="32" viewBox="0 0 32 32" fill="none" xmlns="http://www.w3.org/2000/svg">
<g filter="url(#filter0_d_4985_3979)">
<rect x="4" y="3" width="24" height="24" rx="12" fill="#F2F4F7" shape-rendering="crispEdges"/>
<path opacity="0.4" d="M16.8779 8.25C20.1731 8.25 22.7508 10.7293 22.751 13.6797C22.751 15.4364 21.8478 17.01 20.4229 18.0088L20.0537 18.2666L20.1094 18.7148L20.4004 21.0801L17.2617 19.2148L17.1426 19.1445C17.3721 18.6134 17.5009 18.0323 17.501 17.4229C17.501 14.8317 15.2716 12.8174 12.626 12.8174C12.0732 12.8174 11.5417 12.9059 11.0439 13.0674C11.3714 10.3943 13.8138 8.2502 16.8779 8.25Z" fill="#2C7BF3" stroke="#2C7BF3" stroke-width="1.5"/>
<path d="M16.75 17.4225C16.75 18.315 16.42 19.14 15.865 19.7925C15.1225 20.6925 13.945 21.27 12.625 21.27L10.6675 22.4325C10.3375 22.635 9.9175 22.3575 9.9625 21.975L10.15 20.4975C9.145 19.8 8.5 18.6825 8.5 17.4225C8.5 16.1025 9.205 14.94 10.285 14.25C10.9525 13.815 11.755 13.5675 12.625 13.5675C14.905 13.5675 16.75 15.2925 16.75 17.4225Z" fill="#2C7BF3"/>
</g>
<defs>
<filter id="filter0_d_4985_3979" x="0" y="0" width="32" height="32" filterUnits="userSpaceOnUse" color-interpolation-filters="sRGB">
<feFlood flood-opacity="0" result="BackgroundImageFix"/>
<feColorMatrix in="SourceAlpha" type="matrix" values="0 0 0 0 0 0 0 0 0 0 0 0 0 0 0 0 0 0 127 0" result="hardAlpha"/>
<feOffset dy="1"/>
<feGaussianBlur stdDeviation="2"/>
<feComposite in2="hardAlpha" operator="out"/>
<feColorMatrix type="matrix" values="0 0 0 0 0.0470588 0 0 0 0 0.0470588 0 0 0 0 0.0509804 0 0 0 0.05 0"/>
<feBlend mode="normal" in2="BackgroundImageFix" result="effect1_dropShadow_4985_3979"/>
<feBlend mode="normal" in="SourceGraphic" in2="effect1_dropShadow_4985_3979" result="shape"/>
</filter>
</defs>
</svg>
