<svg width="16" height="16" viewBox="0 0 16 16" fill="none" xmlns="http://www.w3.org/2000/svg">
<path d="M14.667 4.00065V5.61398C14.667 6.66732 14.0003 7.33398 12.947 7.33398H10.667V2.67398C10.667 1.93398 11.2737 1.33398 12.0137 1.33398C12.7403 1.34065 13.407 1.63398 13.887 2.11398C14.367 2.60065 14.667 3.26732 14.667 4.00065Z" stroke="#2C7BF3" stroke-miterlimit="10" stroke-linecap="round" stroke-linejoin="round"/>
<path d="M1.33301 4.66732V14.0007C1.33301 14.554 1.95966 14.8673 2.39966 14.534L3.53967 13.6807C3.80634 13.4807 4.17968 13.5073 4.41968 13.7473L5.52633 14.8607C5.78633 15.1207 6.21302 15.1207 6.47302 14.8607L7.59302 13.7407C7.82635 13.5073 8.19968 13.4807 8.45968 13.6807L9.59969 14.534C10.0397 14.8607 10.6663 14.5473 10.6663 14.0007V2.66732C10.6663 1.93398 11.2663 1.33398 11.9997 1.33398H4.66634H3.99967C1.99967 1.33398 1.33301 2.52732 1.33301 4.00065V4.66732Z" stroke="#2C7BF3" stroke-miterlimit="10" stroke-linecap="round" stroke-linejoin="round"/>
<path d="M4 6H8" stroke="#2C7BF3" stroke-linecap="round" stroke-linejoin="round"/>
<path d="M4.5 8.66602H7.5" stroke="#2C7BF3" stroke-linecap="round" stroke-linejoin="round"/>
</svg>
