<svg width="16" height="16" viewBox="0 0 16 16" fill="none" xmlns="http://www.w3.org/2000/svg">
<path d="M5.66667 2.3335C5.22386 2.3335 4.84827 2.62131 4.71677 3.02006C3.74633 3.15763 3 3.99174 3 5.00016V8.00016C3 9.91822 4.47275 11.4923 6.34911 11.6533C6.52001 13.3543 8.04973 14.2493 9.4902 14.2917C10.2628 14.3144 11.0538 14.0996 11.6583 13.6077C12.2715 13.1087 12.6667 12.345 12.6667 11.3335V8.66683H12V11.3335C12 12.1553 11.6868 12.7249 11.2375 13.0906C10.7795 13.4633 10.1539 13.6443 9.5098 13.6253C8.30453 13.5899 7.18493 12.8804 7.02066 11.65C8.87962 11.4719 10.3333 9.90579 10.3333 8.00016V5.00016C10.3333 4.11957 9.76423 3.3719 8.97375 3.10489C8.87036 2.66277 8.47363 2.3335 8 2.3335C7.44772 2.3335 7 2.78121 7 3.3335C7 3.88578 7.44772 4.3335 8 4.3335C8.3884 4.3335 8.72508 4.11207 8.8907 3.78856C9.34873 3.99961 9.66667 4.46276 9.66667 5.00016V8.00016C9.66667 9.65702 8.32352 11.0002 6.66667 11.0002C5.00981 11.0002 3.66667 9.65702 3.66667 8.00016V5.00016C3.66667 4.35508 4.12478 3.81699 4.73342 3.69348C4.87794 4.06789 5.24129 4.3335 5.66667 4.3335C6.21895 4.3335 6.66667 3.88578 6.66667 3.3335C6.66667 2.78121 6.21895 2.3335 5.66667 2.3335Z" fill="white"/>
<path fill-rule="evenodd" clip-rule="evenodd" d="M11 7.66683C11 6.93045 11.597 6.3335 12.3333 6.3335C13.0697 6.3335 13.6667 6.93045 13.6667 7.66683C13.6667 8.40321 13.0697 9.00016 12.3333 9.00016C11.597 9.00016 11 8.40321 11 7.66683ZM12.3333 8.00016C12.5174 8.00016 12.6667 7.85092 12.6667 7.66683C12.6667 7.48273 12.5174 7.3335 12.3333 7.3335C12.1492 7.3335 12 7.48273 12 7.66683C12 7.85092 12.1492 8.00016 12.3333 8.00016Z" fill="white"/>
</svg>
