<svg width="18" height="18" viewBox="0 0 18 18" fill="none" xmlns="http://www.w3.org/2000/svg">
<path d="M5.625 3.75V3.75C4.58947 3.75 3.75 4.58947 3.75 5.625V9C3.75 11.0711 5.42893 12.75 7.5 12.75V12.75M5.625 3.75C5.625 4.16421 5.96079 4.5 6.375 4.5C6.78921 4.5 7.125 4.16421 7.125 3.75C7.125 3.33579 6.78921 3 6.375 3C5.96079 3 5.625 3.33579 5.625 3.75ZM9.75 3.75C9.75 4.16421 9.41421 4.5 9 4.5C8.58579 4.5 8.25 4.16421 8.25 3.75C8.25 3.33579 8.58579 3 9 3C9.41421 3 9.75 3.33579 9.75 3.75ZM9.75 3.75V3.75C10.5784 3.75 11.25 4.42157 11.25 5.25V9C11.25 11.0711 9.57107 12.75 7.5 12.75V12.75M7.5 12.75C7.5 16.5 13.875 16.875 13.875 12.75V9.75" stroke="#2C7BF3"/>
<path d="M15 8.625C15 9.24632 14.4963 9.75 13.875 9.75C13.2537 9.75 12.75 9.24632 12.75 8.625C12.75 8.00368 13.2537 7.5 13.875 7.5C14.4963 7.5 15 8.00368 15 8.625Z" stroke="#2C7BF3"/>
<path d="M13.875 8.6175H13.8825V8.625H13.875V8.6175Z" stroke="#2C7BF3" stroke-linejoin="round"/>
</svg>
