<svg width="16" height="16" viewBox="0 0 16 16" fill="none" xmlns="http://www.w3.org/2000/svg">
<mask id="path-1-inside-1_6939_10484" fill="white">
<path d="M7.99935 15.1667C4.50602 15.1667 1.66602 12.3267 1.66602 8.83333C1.66602 5.34 4.50602 2.5 7.99935 2.5C11.4927 2.5 14.3327 5.34 14.3327 8.83333C14.3327 12.3267 11.4927 15.1667 7.99935 15.1667ZM7.99935 3.5C5.05935 3.5 2.66602 5.89333 2.66602 8.83333C2.66602 11.7733 5.05935 14.1667 7.99935 14.1667C10.9393 14.1667 13.3327 11.7733 13.3327 8.83333C13.3327 5.89333 10.9393 3.5 7.99935 3.5Z"/>
</mask>
<path d="M7.99935 15.1667C4.50602 15.1667 1.66602 12.3267 1.66602 8.83333C1.66602 5.34 4.50602 2.5 7.99935 2.5C11.4927 2.5 14.3327 5.34 14.3327 8.83333C14.3327 12.3267 11.4927 15.1667 7.99935 15.1667ZM7.99935 3.5C5.05935 3.5 2.66602 5.89333 2.66602 8.83333C2.66602 11.7733 5.05935 14.1667 7.99935 14.1667C10.9393 14.1667 13.3327 11.7733 13.3327 8.83333C13.3327 5.89333 10.9393 3.5 7.99935 3.5Z" fill="#171717"/>
<path d="M7.99935 15.1667V13.6667C5.33444 13.6667 3.16602 11.4982 3.16602 8.83333H1.66602H0.166016C0.166016 13.1551 3.67759 16.6667 7.99935 16.6667V15.1667ZM1.66602 8.83333H3.16602C3.16602 6.16843 5.33444 4 7.99935 4V2.5V1C3.67759 1 0.166016 4.51157 0.166016 8.83333H1.66602ZM7.99935 2.5V4C10.6643 4 12.8327 6.16843 12.8327 8.83333H14.3327H15.8327C15.8327 4.51157 12.3211 1 7.99935 1V2.5ZM14.3327 8.83333H12.8327C12.8327 11.4982 10.6643 13.6667 7.99935 13.6667V15.1667V16.6667C12.3211 16.6667 15.8327 13.1551 15.8327 8.83333H14.3327ZM7.99935 3.5V2C4.23092 2 1.16602 5.06491 1.16602 8.83333H2.66602H4.16602C4.16602 6.72176 5.88778 5 7.99935 5V3.5ZM2.66602 8.83333H1.16602C1.16602 12.6018 4.23092 15.6667 7.99935 15.6667V14.1667V12.6667C5.88778 12.6667 4.16602 10.9449 4.16602 8.83333H2.66602ZM7.99935 14.1667V15.6667C11.7678 15.6667 14.8327 12.6018 14.8327 8.83333H13.3327H11.8327C11.8327 10.9449 10.1109 12.6667 7.99935 12.6667V14.1667ZM13.3327 8.83333H14.8327C14.8327 5.06491 11.7678 2 7.99935 2V3.5V5C10.1109 5 11.8327 6.72176 11.8327 8.83333H13.3327Z" fill="#767A8C" mask="url(#path-1-inside-1_6939_10484)"/>
<mask id="path-3-inside-2_6939_10484" fill="white">
<path d="M8 9.16659C7.72667 9.16659 7.5 8.93992 7.5 8.66659V5.33325C7.5 5.05992 7.72667 4.83325 8 4.83325C8.27333 4.83325 8.5 5.05992 8.5 5.33325V8.66659C8.5 8.93992 8.27333 9.16659 8 9.16659Z"/>
</mask>
<path d="M8 9.16659C7.72667 9.16659 7.5 8.93992 7.5 8.66659V5.33325C7.5 5.05992 7.72667 4.83325 8 4.83325C8.27333 4.83325 8.5 5.05992 8.5 5.33325V8.66659C8.5 8.93992 8.27333 9.16659 8 9.16659Z" fill="#171717"/>
<path d="M8 9.16659V7.66659C8.55509 7.66659 9 8.11149 9 8.66659H7.5H6C6 9.76835 6.89824 10.6666 8 10.6666V9.16659ZM7.5 8.66659H9V5.33325H7.5H6V8.66659H7.5ZM7.5 5.33325H9C9 5.88835 8.55509 6.33325 8 6.33325V4.83325V3.33325C6.89824 3.33325 6 4.23149 6 5.33325H7.5ZM8 4.83325V6.33325C7.44491 6.33325 7 5.88835 7 5.33325H8.5H10C10 4.23149 9.10176 3.33325 8 3.33325V4.83325ZM8.5 5.33325H7V8.66659H8.5H10V5.33325H8.5ZM8.5 8.66659H7C7 8.11149 7.44491 7.66659 8 7.66659V9.16659V10.6666C9.10176 10.6666 10 9.76835 10 8.66659H8.5Z" fill="#767A8C" mask="url(#path-3-inside-2_6939_10484)"/>
<mask id="path-5-inside-3_6939_10484" fill="white">
<path d="M10 1.83325H6C5.72667 1.83325 5.5 1.60659 5.5 1.33325C5.5 1.05992 5.72667 0.833252 6 0.833252H10C10.2733 0.833252 10.5 1.05992 10.5 1.33325C10.5 1.60659 10.2733 1.83325 10 1.83325Z"/>
</mask>
<path d="M10 1.83325H6C5.72667 1.83325 5.5 1.60659 5.5 1.33325C5.5 1.05992 5.72667 0.833252 6 0.833252H10C10.2733 0.833252 10.5 1.05992 10.5 1.33325C10.5 1.60659 10.2733 1.83325 10 1.83325Z" fill="#171717"/>
<path d="M10 1.83325V0.333252H6V1.83325V3.33325H10V1.83325ZM6 1.83325V0.333252C6.55509 0.333252 7 0.778158 7 1.33325H5.5H4C4 2.43501 4.89824 3.33325 6 3.33325V1.83325ZM5.5 1.33325H7C7 1.88835 6.55509 2.33325 6 2.33325V0.833252V-0.666748C4.89824 -0.666748 4 0.231492 4 1.33325H5.5ZM6 0.833252V2.33325H10V0.833252V-0.666748H6V0.833252ZM10 0.833252V2.33325C9.44491 2.33325 9 1.88835 9 1.33325H10.5H12C12 0.231492 11.1018 -0.666748 10 -0.666748V0.833252ZM10.5 1.33325H9C9 0.778158 9.44491 0.333252 10 0.333252V1.83325V3.33325C11.1018 3.33325 12 2.43501 12 1.33325H10.5Z" fill="#767A8C" mask="url(#path-5-inside-3_6939_10484)"/>
</svg>
