<svg width="16" height="16" viewBox="0 0 16 16" fill="none" xmlns="http://www.w3.org/2000/svg">
<path d="M8.00098 3.8501C10.7722 3.85025 13.0303 6.11372 13.0303 8.88721C13.03 11.6594 10.7732 13.9164 8.00098 13.9165C5.22974 13.9165 2.97085 11.6538 2.9707 8.88037C2.9707 6.10792 5.22852 3.8501 8.00098 3.8501ZM8.00098 4.0835C7.31343 4.0835 6.75098 4.64595 6.75098 5.3335V8.6665C6.75098 9.35405 7.31343 9.9165 8.00098 9.9165C8.6884 9.91635 9.25098 9.35396 9.25098 8.6665V5.3335C9.25098 4.6889 8.75628 4.15461 8.12793 4.09033L8.00098 4.0835Z" fill="#2C7BF3" stroke="#2C7BF3" stroke-width="1.5"/>
<mask id="path-2-inside-1_7254_1427" fill="white">
<path d="M9.92708 2.30016H6.07375C5.80708 2.30016 5.59375 2.08683 5.59375 1.82016C5.59375 1.5535 5.80708 1.3335 6.07375 1.3335H9.92708C10.1937 1.3335 10.4071 1.54683 10.4071 1.8135C10.4071 2.08016 10.1937 2.30016 9.92708 2.30016Z"/>
</mask>
<path d="M9.92708 2.30016H6.07375C5.80708 2.30016 5.59375 2.08683 5.59375 1.82016C5.59375 1.5535 5.80708 1.3335 6.07375 1.3335H9.92708C10.1937 1.3335 10.4071 1.54683 10.4071 1.8135C10.4071 2.08016 10.1937 2.30016 9.92708 2.30016Z" fill="#2C7BF3"/>
<path d="M9.92708 2.30016V0.800163H6.07375V2.30016V3.80016H9.92708V2.30016ZM6.07375 2.30016V0.800163C6.63551 0.800163 7.09375 1.2584 7.09375 1.82016H5.59375H4.09375C4.09375 2.91525 4.97865 3.80016 6.07375 3.80016V2.30016ZM5.59375 1.82016H7.09375C7.09375 2.35486 6.66232 2.8335 6.07375 2.8335V1.3335V-0.166504C4.95185 -0.166504 4.09375 0.752135 4.09375 1.82016H5.59375ZM6.07375 1.3335V2.8335H9.92708V1.3335V-0.166504H6.07375V1.3335ZM9.92708 1.3335V2.8335C9.36532 2.8335 8.90708 2.37525 8.90708 1.8135H10.4071H11.9071C11.9071 0.718404 11.0222 -0.166504 9.92708 -0.166504V1.3335ZM10.4071 1.8135H8.90708C8.90708 1.2788 9.33851 0.800163 9.92708 0.800163V2.30016V3.80016C11.049 3.80016 11.9071 2.88152 11.9071 1.8135H10.4071Z" fill="#2C7BF3" mask="url(#path-2-inside-1_7254_1427)"/>
</svg>
