<svg width="16" height="16" viewBox="0 0 16 16" fill="none" xmlns="http://www.w3.org/2000/svg">
<path d="M8.00049 9.33398H8.66716C9.40049 9.33398 10.0005 8.73398 10.0005 8.00065V1.33398H4.00049C3.00049 1.33398 2.12716 1.88731 1.67383 2.70064" stroke="#767A8C" stroke-linecap="round" stroke-linejoin="round"/>
<path d="M1.33301 11.334C1.33301 12.4407 2.22634 13.334 3.33301 13.334H3.99967C3.99967 12.6007 4.59967 12.0007 5.33301 12.0007C6.06634 12.0007 6.66634 12.6007 6.66634 13.334H9.33301C9.33301 12.6007 9.93301 12.0007 10.6663 12.0007C11.3997 12.0007 11.9997 12.6007 11.9997 13.334H12.6663C13.773 13.334 14.6663 12.4407 14.6663 11.334V9.33398H12.6663C12.2997 9.33398 11.9997 9.03398 11.9997 8.66732V6.66732C11.9997 6.30065 12.2997 6.00065 12.6663 6.00065H13.5263L12.3864 4.00732C12.1464 3.59399 11.7064 3.33398 11.2264 3.33398H9.99967V8.00065C9.99967 8.73398 9.39967 9.33398 8.66634 9.33398H7.99967" stroke="#767A8C" stroke-linecap="round" stroke-linejoin="round"/>
<path d="M5.33333 14.6667C6.06971 14.6667 6.66667 14.0697 6.66667 13.3333C6.66667 12.597 6.06971 12 5.33333 12C4.59695 12 4 12.597 4 13.3333C4 14.0697 4.59695 14.6667 5.33333 14.6667Z" stroke="#767A8C" stroke-linecap="round" stroke-linejoin="round"/>
<path d="M10.6663 14.6667C11.4027 14.6667 11.9997 14.0697 11.9997 13.3333C11.9997 12.597 11.4027 12 10.6663 12C9.92996 12 9.33301 12.597 9.33301 13.3333C9.33301 14.0697 9.92996 14.6667 10.6663 14.6667Z" stroke="#767A8C" stroke-linecap="round" stroke-linejoin="round"/>
<path d="M14.6667 8V9.33333H12.6667C12.3 9.33333 12 9.03333 12 8.66667V6.66667C12 6.3 12.3 6 12.6667 6H13.5267L14.6667 8Z" stroke="#767A8C" stroke-width="1.5" stroke-linecap="round" stroke-linejoin="round"/>
<path d="M1.33301 5.33398H5.33301" stroke="#767A8C" stroke-width="1.5" stroke-linecap="round" stroke-linejoin="round"/>
<path d="M1.33301 7.33398H3.99967" stroke="#767A8C" stroke-width="1.5" stroke-linecap="round" stroke-linejoin="round"/>
<path d="M1.33301 9.33398H2.66634" stroke="#767A8C" stroke-width="1.5" stroke-linecap="round" stroke-linejoin="round"/>
</svg>
