<svg width="25" height="24" viewBox="0 0 25 24" fill="none" xmlns="http://www.w3.org/2000/svg">
<path d="M12.4998 14H13.4998C14.5998 14 15.4998 13.1 15.4998 12V2H6.49976C4.99976 2 3.68977 2.82999 3.00977 4.04999" stroke="#D5D6DB" stroke-width="1.5" stroke-linecap="round" stroke-linejoin="round"/>
<path d="M2.5 17C2.5 18.66 3.84 20 5.5 20H6.5C6.5 18.9 7.4 18 8.5 18C9.6 18 10.5 18.9 10.5 20H14.5C14.5 18.9 15.4 18 16.5 18C17.6 18 18.5 18.9 18.5 20H19.5C21.16 20 22.5 18.66 22.5 17V14H19.5C18.95 14 18.5 13.55 18.5 13V10C18.5 9.45 18.95 9 19.5 9H20.79L19.08 6.01001C18.72 5.39001 18.06 5 17.34 5H15.5V12C15.5 13.1 14.6 14 13.5 14H12.5" stroke="#D5D6DB" stroke-width="1.5" stroke-linecap="round" stroke-linejoin="round"/>
<path d="M8.5 22C9.60457 22 10.5 21.1046 10.5 20C10.5 18.8954 9.60457 18 8.5 18C7.39543 18 6.5 18.8954 6.5 20C6.5 21.1046 7.39543 22 8.5 22Z" stroke="#D5D6DB" stroke-width="1.5" stroke-linecap="round" stroke-linejoin="round"/>
<path d="M16.5 22C17.6046 22 18.5 21.1046 18.5 20C18.5 18.8954 17.6046 18 16.5 18C15.3954 18 14.5 18.8954 14.5 20C14.5 21.1046 15.3954 22 16.5 22Z" stroke="#D5D6DB" stroke-width="1.5" stroke-linecap="round" stroke-linejoin="round"/>
<path d="M22.5 12V14H19.5C18.95 14 18.5 13.55 18.5 13V10C18.5 9.45 18.95 9 19.5 9H20.79L22.5 12Z" stroke="#D5D6DB" stroke-width="1.5" stroke-linecap="round" stroke-linejoin="round"/>
<path d="M2.5 8H8.5" stroke="#D5D6DB" stroke-width="1.5" stroke-linecap="round" stroke-linejoin="round"/>
<path d="M2.5 11H6.5" stroke="#D5D6DB" stroke-width="1.5" stroke-linecap="round" stroke-linejoin="round"/>
<path d="M2.5 14H4.5" stroke="#D5D6DB" stroke-width="1.5" stroke-linecap="round" stroke-linejoin="round"/>
</svg>
