<svg width="25" height="24" viewBox="0 0 25 24" fill="none" xmlns="http://www.w3.org/2000/svg">
<path d="M9.5 19C9.5 19.75 9.29 20.46 8.92 21.06C8.23 22.22 6.96 23 5.5 23C4.04 23 2.77 22.22 2.08 21.06C1.71 20.46 1.5 19.75 1.5 19C1.5 16.79 3.29 15 5.5 15C7.71 15 9.5 16.79 9.5 19Z" stroke="#2C7BF3" stroke-width="1.5" stroke-miterlimit="10" stroke-linecap="round" stroke-linejoin="round"/>
<path d="M3.94141 18.9995L4.93141 19.9895L7.06141 18.0195" stroke="#2C7BF3" stroke-width="1.5" stroke-linecap="round" stroke-linejoin="round"/>
<path d="M18.2514 7.04997C18.0114 7.00997 17.7614 6.99998 17.5014 6.99998H7.50141C7.22141 6.99998 6.95141 7.01998 6.69141 7.05998C6.83141 6.77998 7.03141 6.52001 7.27141 6.28001L10.5214 3.02C11.8914 1.66 14.1114 1.66 15.4814 3.02L17.2314 4.78996C17.8714 5.41996 18.2114 6.21997 18.2514 7.04997Z" stroke="#2C7BF3" stroke-width="1.5" stroke-linecap="round" stroke-linejoin="round"/>
<path d="M22.5 12V17C22.5 20 20.5 22 17.5 22H8.13C8.44 21.74 8.71 21.42 8.92 21.06C9.29 20.46 9.5 19.75 9.5 19C9.5 16.79 7.71 15 5.5 15C4.3 15 3.23 15.53 2.5 16.36V12C2.5 9.28 4.14 7.38 6.69 7.06C6.95 7.02 7.22 7 7.5 7H17.5C17.76 7 18.01 7.00999 18.25 7.04999C20.83 7.34999 22.5 9.26 22.5 12Z" stroke="#2C7BF3" stroke-width="1.5" stroke-linecap="round" stroke-linejoin="round"/>
<path d="M22.5 12.5H19.5C18.4 12.5 17.5 13.4 17.5 14.5C17.5 15.6 18.4 16.5 19.5 16.5H22.5" stroke="#2C7BF3" stroke-width="1.5" stroke-linecap="round" stroke-linejoin="round"/>
</svg>
