<svg width="16" height="16" viewBox="0 0 16 16" fill="none" xmlns="http://www.w3.org/2000/svg">
<path d="M6.00033 12.6667C6.00033 13.1667 5.86032 13.64 5.61366 14.04C5.15366 14.8133 4.30699 15.3333 3.33366 15.3333C2.36033 15.3333 1.51366 14.8133 1.05366 14.04C0.806993 13.64 0.666992 13.1667 0.666992 12.6667C0.666992 11.1933 1.86033 10 3.33366 10C4.80699 10 6.00033 11.1933 6.00033 12.6667Z" stroke="#2C7BF3" stroke-miterlimit="10" stroke-linecap="round" stroke-linejoin="round"/>
<path d="M2.29492 12.667L2.95492 13.327L4.37492 12.0137" stroke="#2C7BF3" stroke-linecap="round" stroke-linejoin="round"/>
<path d="M11.8346 4.70063C11.6746 4.67396 11.5079 4.6673 11.3346 4.6673H4.66793C4.48126 4.6673 4.30126 4.68064 4.12793 4.7073C4.22126 4.52064 4.3546 4.34732 4.5146 4.18732L6.68126 2.01398C7.5946 1.10732 9.0746 1.10732 9.98793 2.01398L11.1546 3.19396C11.5813 3.61396 11.8079 4.1473 11.8346 4.70063Z" stroke="#2C7BF3" stroke-linecap="round" stroke-linejoin="round"/>
<path d="M14.6663 7.99935V11.3327C14.6663 13.3327 13.333 14.666 11.333 14.666H5.08634C5.29301 14.4927 5.47301 14.2793 5.61301 14.0393C5.85967 13.6393 5.99967 13.166 5.99967 12.666C5.99967 11.1927 4.80634 9.99935 3.33301 9.99935C2.53301 9.99935 1.81967 10.3527 1.33301 10.906V7.99935C1.33301 6.18602 2.42634 4.91935 4.12634 4.70601C4.29967 4.67935 4.47967 4.66602 4.66634 4.66602H11.333C11.5063 4.66602 11.673 4.67267 11.833 4.69934C13.553 4.89934 14.6663 6.17268 14.6663 7.99935Z" stroke="#2C7BF3" stroke-linecap="round" stroke-linejoin="round"/>
<path d="M14.6663 8.33398H12.6663C11.933 8.33398 11.333 8.93398 11.333 9.66732C11.333 10.4007 11.933 11.0007 12.6663 11.0007H14.6663" stroke="#2C7BF3" stroke-linecap="round" stroke-linejoin="round"/>
</svg>
