<svg width="24" height="24" viewBox="0 0 24 24" fill="none" xmlns="http://www.w3.org/2000/svg">
<path fill-rule="evenodd" clip-rule="evenodd" d="M12 3C6.75329 3 3 6.75329 3 12C3 17.2467 6.75329 21 12 21C17.2467 21 21 17.2467 21 12C21 6.75329 17.2467 3 12 3ZM2 12C2 6.20101 6.20101 2 12 2C17.799 2 22 6.20101 22 12C22 17.799 17.799 22 12 22C6.20101 22 2 17.799 2 12Z" fill="#2C7BF3"/>
<path d="M12 10C10.8954 10 10 10.8954 10 12C10 13.1046 10.8954 14 12 14C13.1046 14 14 13.1046 14 12C14 10.8954 13.1046 10 12 10Z" fill="#2C7BF3"/>
<path d="M8.75688 4.30201C8.60672 4.24858 8.47812 4.27807 8.4159 4.29815C8.38667 4.30758 8.3633 4.31779 8.35155 4.32307C8.34049 4.32803 8.32956 4.33328 8.32429 4.33581L8.3231 4.33638C6.88877 5.02451 5.67592 6.10159 4.82304 7.44551C3.97016 8.78944 3.512 10.3455 3.50007 11.9363L3.50006 11.9376C3.50002 11.9434 3.49992 11.9555 3.50014 11.9677C3.50037 11.9806 3.50108 12.006 3.50499 12.0365C3.51332 12.1014 3.54139 12.2303 3.65366 12.3434C3.7663 12.4569 3.89544 12.4857 3.95975 12.4944C3.99011 12.4985 4.01554 12.4994 4.0284 12.4997C4.04052 12.5 4.05264 12.5 4.05852 12.5L9.06131 12.5C9.06398 12.5001 9.11214 12.5009 9.15926 12.4947C9.22096 12.4866 9.34892 12.4595 9.46206 12.3487C9.57629 12.2368 9.60538 12.1081 9.61446 12.048C9.62145 12.0018 9.62172 11.9542 9.62174 11.9505C9.63079 11.5164 9.75851 11.0927 9.9915 10.7255C10.2245 10.3584 10.5535 10.0624 10.9424 9.86939C10.9458 9.86779 10.9888 9.84726 11.0276 9.82126C11.0781 9.78748 11.1822 9.70635 11.2348 9.55534C11.2869 9.40579 11.2569 9.27849 11.2379 9.2192C11.2235 9.17377 11.2021 9.13042 11.2011 9.1283L9.07101 4.60167C9.06852 4.59636 9.06335 4.58536 9.0579 4.57451C9.05213 4.56301 9.04049 4.54038 9.02384 4.51466C8.98858 4.46018 8.90752 4.3556 8.75688 4.30201Z" fill="#2C7BF3"/>
<path d="M15.2433 4.30201C15.3935 4.24858 15.5221 4.27807 15.5843 4.29815C15.6135 4.30758 15.6369 4.31779 15.6486 4.32307C15.6597 4.32803 15.6706 4.33328 15.6759 4.33581L15.6771 4.33638C17.1114 5.02451 18.3243 6.10159 19.1772 7.44551C20.03 8.78944 20.4882 10.3455 20.5001 11.9363L20.5001 11.9376C20.5002 11.9434 20.5003 11.9556 20.5001 11.9677C20.4998 11.9806 20.4991 12.006 20.4952 12.0365C20.4869 12.1014 20.4588 12.2303 20.3465 12.3434C20.2339 12.4569 20.1048 12.4857 20.0404 12.4944C20.0101 12.4985 19.9847 12.4994 19.9718 12.4997C19.9597 12.5 19.9476 12.5 19.9417 12.5L14.9389 12.5C14.9362 12.5001 14.8881 12.5009 14.8409 12.4947C14.7792 12.4866 14.6513 12.4595 14.5381 12.3487C14.4239 12.2368 14.3948 12.1081 14.3857 12.048C14.3787 12.0018 14.3785 11.9542 14.3785 11.9505C14.3694 11.5164 14.2417 11.0927 14.0087 10.7255C13.7757 10.3584 13.4467 10.0624 13.0578 9.86939C13.0544 9.86779 13.0114 9.84726 12.9726 9.82126C12.9221 9.78748 12.818 9.70635 12.7654 9.55534C12.7133 9.40579 12.7433 9.27849 12.7622 9.2192C12.7767 9.17377 12.7981 9.13042 12.7991 9.1283L14.9292 4.60167C14.9317 4.59636 14.9368 4.58536 14.9423 4.57451C14.9481 4.56301 14.9597 4.54038 14.9764 4.51466C15.0116 4.46018 15.0927 4.3556 15.2433 4.30201Z" fill="#2C7BF3"/>
<path d="M12.0076 14.3786C12.4424 14.3772 12.8682 14.2567 13.2389 14.0306C13.2421 14.0286 13.2824 14.0032 13.325 13.9842C13.3805 13.9595 13.5047 13.9147 13.6605 13.9507C13.8147 13.9864 13.9065 14.0797 13.9465 14.1273C13.9772 14.1637 14.0025 14.2048 14.0038 14.2069L16.6968 18.4215C16.6996 18.4259 16.7067 18.4369 16.7135 18.4481C16.7201 18.4591 16.7331 18.4811 16.746 18.5089C16.7732 18.5677 16.8185 18.6921 16.7835 18.8481C16.7486 19.0036 16.6551 19.0967 16.605 19.1386C16.5814 19.1583 16.5603 19.1726 16.5496 19.1798C16.5395 19.1865 16.5293 19.1929 16.5243 19.196L16.5231 19.1967C15.1762 20.0432 13.6183 20.495 12.0266 20.5C10.4349 20.5049 8.87426 20.0628 7.52208 19.2247L7.51509 19.2204C7.50973 19.217 7.5026 19.2125 7.49555 19.2079C7.48478 19.2008 7.46359 19.1866 7.4399 19.1671C7.38948 19.1255 7.29539 19.033 7.25955 18.8777C7.2236 18.7219 7.26808 18.5973 7.29501 18.5382C7.30771 18.5104 7.32052 18.4884 7.3271 18.4773C7.33331 18.4669 7.3398 18.4566 7.34293 18.4516L10.0104 14.2193C10.0116 14.2173 10.0367 14.176 10.0671 14.1393C10.1069 14.0915 10.198 13.9977 10.3521 13.961C10.5077 13.924 10.6321 13.9681 10.6877 13.9924C10.7306 14.0111 10.7708 14.0362 10.774 14.0382C11.146 14.262 11.5728 14.3799 12.0076 14.3786Z" fill="#2C7BF3"/>
</svg>
